<mxfile host="65bd71144e">
    <diagram id="VR_zQWdOE4x01FTpQk24" name="ページ1">
        <mxGraphModel dx="1123" dy="1867" grid="1" gridSize="10" guides="1" tooltips="1" connect="1" arrows="1" fold="1" page="1" pageScale="1" pageWidth="827" pageHeight="1169" math="0" shadow="0">
            <root>
                <mxCell id="0"/>
                <mxCell id="1" parent="0"/>
                <mxCell id="33" value="" style="rounded=0;whiteSpace=wrap;html=1;fontColor=#000000;strokeColor=none;strokeWidth=4;fillColor=#FFFFFF;" vertex="1" parent="1">
                    <mxGeometry x="40" width="760" height="790" as="geometry"/>
                </mxCell>
                <mxCell id="21" value="" style="rounded=1;whiteSpace=wrap;html=1;fontColor=#FF8000;strokeColor=#FF8000;fillColor=#FFCC99;strokeWidth=4;" vertex="1" parent="1">
                    <mxGeometry x="60" y="30" width="710" height="430" as="geometry"/>
                </mxCell>
                <mxCell id="2" value="VPC" style="sketch=0;outlineConnect=0;gradientColor=none;html=1;whiteSpace=wrap;fontSize=12;fontStyle=0;shape=mxgraph.aws4.group;grIcon=mxgraph.aws4.group_vpc;strokeColor=#336600;fillColor=#E6FFCC;verticalAlign=top;align=left;spacingLeft=30;fontColor=#000000;dashed=0;" vertex="1" parent="1">
                    <mxGeometry x="110" y="50" width="555" height="380" as="geometry"/>
                </mxCell>
                <mxCell id="3" value="app-northeast-1c" style="sketch=0;outlineConnect=0;html=1;whiteSpace=wrap;fontSize=12;fontStyle=0;shape=mxgraph.aws4.group;grIcon=mxgraph.aws4.group_availability_zone;verticalAlign=top;align=left;spacingLeft=30;dashed=1;fillColor=none;fontColor=#4D4D4D;strokeColor=#999999;" vertex="1" parent="1">
                    <mxGeometry x="140" y="80" width="240" height="330" as="geometry"/>
                </mxCell>
                <mxCell id="4" value="app-northeast-1a" style="sketch=0;outlineConnect=0;gradientColor=none;html=1;whiteSpace=wrap;fontSize=12;fontStyle=0;shape=mxgraph.aws4.group;grIcon=mxgraph.aws4.group_availability_zone;strokeColor=#999999;fillColor=none;verticalAlign=top;align=left;spacingLeft=30;fontColor=#666666;dashed=1;" vertex="1" parent="1">
                    <mxGeometry x="400" y="80" width="240" height="330" as="geometry"/>
                </mxCell>
                <mxCell id="5" value="Private Subnet" style="sketch=0;outlineConnect=0;gradientColor=none;html=1;whiteSpace=wrap;fontSize=12;fontStyle=0;shape=mxgraph.aws4.group;grIcon=mxgraph.aws4.group_subnet;strokeColor=#000000;fillColor=#FFFFFF;verticalAlign=top;align=left;spacingLeft=30;fontColor=#000000;dashed=0;" vertex="1" parent="1">
                    <mxGeometry x="160" y="110" width="200" height="140" as="geometry"/>
                </mxCell>
                <mxCell id="6" value="Public Subnet" style="sketch=0;outlineConnect=0;gradientColor=none;html=1;whiteSpace=wrap;fontSize=12;fontStyle=0;shape=mxgraph.aws4.group;grIcon=mxgraph.aws4.group_subnet;strokeColor=#000000;fillColor=#FFFFFF;verticalAlign=top;align=left;spacingLeft=30;fontColor=#000000;dashed=0;" vertex="1" parent="1">
                    <mxGeometry x="160" y="260" width="200" height="140" as="geometry"/>
                </mxCell>
                <mxCell id="7" value="Private Subnet" style="sketch=0;outlineConnect=0;gradientColor=none;html=1;whiteSpace=wrap;fontSize=12;fontStyle=0;shape=mxgraph.aws4.group;grIcon=mxgraph.aws4.group_subnet;strokeColor=#000000;fillColor=#FFFFFF;verticalAlign=top;align=left;spacingLeft=30;fontColor=#000000;dashed=0;" vertex="1" parent="1">
                    <mxGeometry x="420" y="110" width="200" height="140" as="geometry"/>
                </mxCell>
                <mxCell id="8" value="Public Subnet" style="sketch=0;outlineConnect=0;gradientColor=none;html=1;whiteSpace=wrap;fontSize=12;fontStyle=0;shape=mxgraph.aws4.group;grIcon=mxgraph.aws4.group_subnet;strokeColor=#000000;fillColor=#FFFFFF;verticalAlign=top;align=left;spacingLeft=30;fontColor=#000000;dashed=0;" vertex="1" parent="1">
                    <mxGeometry x="420" y="260" width="200" height="140" as="geometry"/>
                </mxCell>
                <mxCell id="12" value="" style="sketch=0;points=[[0,0,0],[0.25,0,0],[0.5,0,0],[0.75,0,0],[1,0,0],[0,1,0],[0.25,1,0],[0.5,1,0],[0.75,1,0],[1,1,0],[0,0.25,0],[0,0.5,0],[0,0.75,0],[1,0.25,0],[1,0.5,0],[1,0.75,0]];outlineConnect=0;fontColor=#232F3E;gradientColor=#F78E04;gradientDirection=north;fillColor=#D05C17;strokeColor=#ffffff;dashed=0;verticalLabelPosition=bottom;verticalAlign=top;align=center;html=1;fontSize=12;fontStyle=0;aspect=fixed;shape=mxgraph.aws4.resourceIcon;resIcon=mxgraph.aws4.ecr;" vertex="1" parent="1">
                    <mxGeometry x="680" y="300" width="60" height="60" as="geometry"/>
                </mxCell>
                <mxCell id="13" value="" style="sketch=0;points=[[0,0,0],[0.25,0,0],[0.5,0,0],[0.75,0,0],[1,0,0],[0,1,0],[0.25,1,0],[0.5,1,0],[0.75,1,0],[1,1,0],[0,0.25,0],[0,0.5,0],[0,0.75,0],[1,0.25,0],[1,0.5,0],[1,0.75,0]];outlineConnect=0;fontColor=#232F3E;gradientColor=#F78E04;gradientDirection=north;fillColor=#D05C17;strokeColor=#ffffff;dashed=0;verticalLabelPosition=bottom;verticalAlign=top;align=center;html=1;fontSize=12;fontStyle=0;aspect=fixed;shape=mxgraph.aws4.resourceIcon;resIcon=mxgraph.aws4.ec2;" vertex="1" parent="1">
                    <mxGeometry x="220" y="291" width="78" height="78" as="geometry"/>
                </mxCell>
                <mxCell id="16" value="" style="rounded=0;whiteSpace=wrap;html=1;fontColor=#FF8000;strokeColor=#FF8000;fillColor=none;" vertex="1" parent="1">
                    <mxGeometry x="450" y="293" width="150" height="90" as="geometry"/>
                </mxCell>
                <mxCell id="17" value="" style="sketch=0;points=[[0,0,0],[0.25,0,0],[0.5,0,0],[0.75,0,0],[1,0,0],[0,1,0],[0.25,1,0],[0.5,1,0],[0.75,1,0],[1,1,0],[0,0.25,0],[0,0.5,0],[0,0.75,0],[1,0.25,0],[1,0.5,0],[1,0.75,0]];outlineConnect=0;fontColor=#232F3E;gradientColor=#F78E04;gradientDirection=north;fillColor=#D05C17;strokeColor=#ffffff;dashed=0;verticalLabelPosition=bottom;verticalAlign=top;align=center;html=1;fontSize=12;fontStyle=0;aspect=fixed;shape=mxgraph.aws4.resourceIcon;resIcon=mxgraph.aws4.ecs;" vertex="1" parent="1">
                    <mxGeometry x="450" y="293" width="28" height="28" as="geometry"/>
                </mxCell>
                <mxCell id="18" value="" style="sketch=0;points=[[0,0,0],[0.25,0,0],[0.5,0,0],[0.75,0,0],[1,0,0],[0,1,0],[0.25,1,0],[0.5,1,0],[0.75,1,0],[1,1,0],[0,0.25,0],[0,0.5,0],[0,0.75,0],[1,0.25,0],[1,0.5,0],[1,0.75,0]];outlineConnect=0;fontColor=#232F3E;gradientColor=#4D72F3;gradientDirection=north;fillColor=#3334B9;strokeColor=#ffffff;dashed=0;verticalLabelPosition=bottom;verticalAlign=top;align=center;html=1;fontSize=12;fontStyle=0;aspect=fixed;shape=mxgraph.aws4.resourceIcon;resIcon=mxgraph.aws4.rds;" vertex="1" parent="1">
                    <mxGeometry x="480" y="140" width="80" height="80" as="geometry"/>
                </mxCell>
                <mxCell id="19" value="" style="outlineConnect=0;dashed=0;verticalLabelPosition=bottom;verticalAlign=top;align=center;html=1;shape=mxgraph.aws3.internet_gateway;fillColor=#F58534;gradientColor=none;fontColor=#FF8000;strokeColor=#0000FF;" vertex="1" parent="1">
                    <mxGeometry x="367.37" y="410" width="40.25" height="42" as="geometry"/>
                </mxCell>
                <mxCell id="22" value="" style="rounded=0;whiteSpace=wrap;html=1;fontColor=#000000;strokeColor=#000000;strokeWidth=4;fillColor=#FFFFFF;" vertex="1" parent="1">
                    <mxGeometry x="70" y="520" width="340" height="240" as="geometry"/>
                </mxCell>
                <mxCell id="23" value="" style="rounded=0;whiteSpace=wrap;html=1;fontColor=#000000;strokeColor=#000000;strokeWidth=4;fillColor=#FFFFFF;" vertex="1" parent="1">
                    <mxGeometry x="450" y="520" width="330" height="240" as="geometry"/>
                </mxCell>
                <mxCell id="24" value="RDS（MySQL）" style="text;html=1;resizable=0;autosize=1;align=center;verticalAlign=middle;points=[];fillColor=none;strokeColor=none;rounded=0;fontColor=#000000;" vertex="1" parent="1">
                    <mxGeometry x="476" y="220" width="100" height="20" as="geometry"/>
                </mxCell>
                <mxCell id="25" value="EC2（踏み台サーバ）" style="text;html=1;resizable=0;autosize=1;align=center;verticalAlign=middle;points=[];fillColor=none;strokeColor=none;rounded=0;fontColor=#000000;" vertex="1" parent="1">
                    <mxGeometry x="201" y="371" width="130" height="20" as="geometry"/>
                </mxCell>
                <mxCell id="27" value="ECR" style="text;html=1;resizable=0;autosize=1;align=center;verticalAlign=middle;points=[];fillColor=none;strokeColor=none;rounded=0;fontColor=#000000;" vertex="1" parent="1">
                    <mxGeometry x="690" y="360" width="40" height="20" as="geometry"/>
                </mxCell>
                <mxCell id="31" value="ECS（Fargate）" style="text;html=1;resizable=0;autosize=1;align=center;verticalAlign=middle;points=[];fillColor=none;strokeColor=none;rounded=0;fontColor=#000000;" vertex="1" parent="1">
                    <mxGeometry x="475" y="295" width="110" height="20" as="geometry"/>
                </mxCell>
                <mxCell id="36" value="IGW" style="text;html=1;resizable=0;autosize=1;align=center;verticalAlign=middle;points=[];fillColor=none;strokeColor=none;rounded=0;fontColor=#000000;" vertex="1" parent="1">
                    <mxGeometry x="404" y="430" width="40" height="20" as="geometry"/>
                </mxCell>
                <mxCell id="39" value="" style="rounded=0;whiteSpace=wrap;html=1;fontColor=#000000;strokeColor=#000000;strokeWidth=2;fillColor=#E6E6E6;" vertex="1" parent="1">
                    <mxGeometry x="90" y="640" width="150" height="100" as="geometry"/>
                </mxCell>
                <mxCell id="40" value="" style="rounded=0;whiteSpace=wrap;html=1;fontColor=#000000;strokeColor=#000000;strokeWidth=2;fillColor=#E6E6E6;" vertex="1" parent="1">
                    <mxGeometry x="240" y="640" width="150" height="100" as="geometry"/>
                </mxCell>
                <mxCell id="42" value="" style="rounded=0;whiteSpace=wrap;html=1;fontColor=#000000;strokeColor=#000000;strokeWidth=2;fillColor=#E6E6E6;" vertex="1" parent="1">
                    <mxGeometry x="165" y="540" width="150" height="100" as="geometry"/>
                </mxCell>
                <mxCell id="46" value="" style="rounded=0;whiteSpace=wrap;html=1;fontColor=#000000;strokeColor=#000000;strokeWidth=2;fillColor=#E6E6E6;" vertex="1" parent="1">
                    <mxGeometry x="465" y="640" width="150" height="100" as="geometry"/>
                </mxCell>
                <mxCell id="47" value="" style="rounded=0;whiteSpace=wrap;html=1;fontColor=#000000;strokeColor=#000000;strokeWidth=2;fillColor=#E6E6E6;" vertex="1" parent="1">
                    <mxGeometry x="615" y="640" width="150" height="100" as="geometry"/>
                </mxCell>
                <mxCell id="50" value="" style="sketch=0;aspect=fixed;html=1;points=[];align=center;image;fontSize=12;image=img/lib/mscae/Docker.svg;fontColor=#282B2B;" vertex="1" parent="1">
                    <mxGeometry x="590" y="625" width="50" height="41" as="geometry"/>
                </mxCell>
                <mxCell id="51" value="" style="sketch=0;aspect=fixed;html=1;points=[];align=center;image;fontSize=12;image=img/lib/mscae/Docker.svg;fontColor=#282B2B;" vertex="1" parent="1">
                    <mxGeometry x="215" y="622.5" width="50" height="41" as="geometry"/>
                </mxCell>
                <mxCell id="52" value="" style="shape=mxgraph.signs.tech.computer;html=1;pointerEvents=1;fillColor=#000000;strokeColor=none;verticalLabelPosition=bottom;verticalAlign=top;align=center;fontColor=#000000;" vertex="1" parent="1">
                    <mxGeometry x="63" y="480" width="50" height="50" as="geometry"/>
                </mxCell>
                <mxCell id="53" value="ローカル（開発環境）" style="text;html=1;resizable=0;autosize=1;align=center;verticalAlign=middle;points=[];fillColor=none;strokeColor=none;rounded=0;fontColor=#000000;fontSize=18;" vertex="1" parent="1">
                    <mxGeometry x="113" y="490" width="190" height="30" as="geometry"/>
                </mxCell>
                <mxCell id="54" value="" style="dashed=0;outlineConnect=0;html=1;align=center;labelPosition=center;verticalLabelPosition=bottom;verticalAlign=top;shape=mxgraph.weblogos.github;fontSize=18;fontColor=#000000;strokeColor=#000000;strokeWidth=2;fillColor=#E6E6E6;" vertex="1" parent="1">
                    <mxGeometry x="444" y="480" width="50" height="50" as="geometry"/>
                </mxCell>
                <mxCell id="55" value="GitHub Actions" style="text;html=1;resizable=0;autosize=1;align=center;verticalAlign=middle;points=[];fillColor=none;strokeColor=none;rounded=0;fontColor=#000000;fontSize=18;" vertex="1" parent="1">
                    <mxGeometry x="493" y="490" width="130" height="30" as="geometry"/>
                </mxCell>
                <mxCell id="60" value="" style="endArrow=classic;html=1;fontSize=18;fontColor=#000000;strokeColor=#000000;strokeWidth=2;fillColor=#FFFFFF;exitX=0.824;exitY=0.333;exitDx=0;exitDy=0;exitPerimeter=0;entryX=0.303;entryY=0.417;entryDx=0;entryDy=0;entryPerimeter=0;" edge="1" parent="1" source="22" target="23">
                    <mxGeometry width="50" height="50" relative="1" as="geometry">
                        <mxPoint x="390" y="420" as="sourcePoint"/>
                        <mxPoint x="440" y="370" as="targetPoint"/>
                    </mxGeometry>
                </mxCell>
                <mxCell id="61" value="" style="endArrow=classic;html=1;fontSize=18;fontColor=#000000;strokeColor=#000000;strokeWidth=2;fillColor=#FFFFFF;exitX=0.824;exitY=0.333;exitDx=0;exitDy=0;exitPerimeter=0;entryX=0.303;entryY=0.167;entryDx=0;entryDy=0;entryPerimeter=0;" edge="1" parent="1" target="23">
                    <mxGeometry width="50" height="50" relative="1" as="geometry">
                        <mxPoint x="349.15999999999985" y="587.9200000000001" as="sourcePoint"/>
                        <mxPoint x="509.05999999999995" y="587.9200000000001" as="targetPoint"/>
                    </mxGeometry>
                </mxCell>
                <mxCell id="62" value="push main branch" style="text;html=1;resizable=0;autosize=1;align=center;verticalAlign=middle;points=[];fillColor=none;strokeColor=none;rounded=0;fontColor=#000000;rotation=5;" vertex="1" parent="1">
                    <mxGeometry x="448" y="594" width="110" height="20" as="geometry"/>
                </mxCell>
                <mxCell id="64" value="push tag" style="text;html=1;resizable=0;autosize=1;align=center;verticalAlign=middle;points=[];fillColor=none;strokeColor=none;rounded=0;fontColor=#000000;rotation=-10;" vertex="1" parent="1">
                    <mxGeometry x="460" y="547" width="60" height="20" as="geometry"/>
                </mxCell>
                <mxCell id="65" value="デプロイ" style="text;html=1;resizable=0;autosize=1;align=center;verticalAlign=middle;points=[];fillColor=none;strokeColor=none;rounded=0;fontColor=#000000;fontSize=18;" vertex="1" parent="1">
                    <mxGeometry x="550" y="542" width="90" height="30" as="geometry"/>
                </mxCell>
                <mxCell id="66" value="テスト" style="text;html=1;resizable=0;autosize=1;align=center;verticalAlign=middle;points=[];fillColor=none;strokeColor=none;rounded=0;fontColor=#000000;fontSize=18;" vertex="1" parent="1">
                    <mxGeometry x="545" y="604" width="70" height="30" as="geometry"/>
                </mxCell>
                <mxCell id="67" value="" style="curved=1;endArrow=classic;html=1;fontSize=18;fontColor=#000000;strokeColor=#000000;strokeWidth=2;fillColor=#FFFFFF;" edge="1" parent="1" target="27">
                    <mxGeometry width="50" height="50" relative="1" as="geometry">
                        <mxPoint x="640" y="560" as="sourcePoint"/>
                        <mxPoint x="640.1388888888889" y="520" as="targetPoint"/>
                        <Array as="points">
                            <mxPoint x="760" y="470"/>
                        </Array>
                    </mxGeometry>
                </mxCell>
                <mxCell id="68" value="" style="curved=1;endArrow=classic;html=1;fontSize=18;fontColor=#000000;strokeColor=#000000;strokeWidth=2;fillColor=#FFFFFF;entryX=0.871;entryY=0.786;entryDx=0;entryDy=0;entryPerimeter=0;" edge="1" parent="1">
                    <mxGeometry width="50" height="50" relative="1" as="geometry">
                        <mxPoint x="640" y="560" as="sourcePoint"/>
                        <mxPoint x="589.94" y="370.02" as="targetPoint"/>
                        <Array as="points">
                            <mxPoint x="770" y="480"/>
                        </Array>
                    </mxGeometry>
                </mxCell>
                <mxCell id="69" value="push image" style="text;html=1;resizable=0;autosize=1;align=center;verticalAlign=middle;points=[];fillColor=none;strokeColor=none;rounded=0;fontColor=#000000;" vertex="1" parent="1">
                    <mxGeometry x="720" y="385" width="80" height="20" as="geometry"/>
                </mxCell>
                <mxCell id="70" value="run" style="text;html=1;resizable=0;autosize=1;align=center;verticalAlign=middle;points=[];fillColor=none;strokeColor=none;rounded=0;fontColor=#000000;" vertex="1" parent="1">
                    <mxGeometry x="612" y="396" width="30" height="20" as="geometry"/>
                </mxCell>
                <mxCell id="72" value="" style="endArrow=classic;html=1;fontSize=18;fontColor=#000000;strokeColor=#000000;strokeWidth=2;fillColor=#FFFFFF;exitX=0;exitY=0.5;exitDx=0;exitDy=0;exitPerimeter=0;" edge="1" parent="1" source="12" target="8">
                    <mxGeometry width="50" height="50" relative="1" as="geometry">
                        <mxPoint x="390" y="470" as="sourcePoint"/>
                        <mxPoint x="440" y="420" as="targetPoint"/>
                    </mxGeometry>
                </mxCell>
                <mxCell id="73" value="pull image" style="text;html=1;resizable=0;autosize=1;align=center;verticalAlign=middle;points=[];fillColor=none;strokeColor=none;rounded=0;fontColor=#000000;" vertex="1" parent="1">
                    <mxGeometry x="616" y="330" width="70" height="20" as="geometry"/>
                </mxCell>
                <mxCell id="74" value="" style="outlineConnect=0;dashed=0;verticalLabelPosition=bottom;verticalAlign=top;align=center;html=1;shape=mxgraph.aws3.cloud_2;fillColor=#F58534;gradientColor=none;fontSize=18;fontColor=#000000;strokeColor=#000000;strokeWidth=2;" vertex="1" parent="1">
                    <mxGeometry x="58" y="26" width="50" height="50" as="geometry"/>
                </mxCell>
                <mxCell id="75" value="" style="shape=image;imageAspect=0;aspect=fixed;verticalLabelPosition=bottom;verticalAlign=top;fontSize=18;fontColor=#000000;strokeColor=#000000;strokeWidth=2;fillColor=#E6E6E6;image=data:image/png,iVBORw0KGgoAAAANSUhEUgAAAVcAAACTCAMAAAAN4ao8AAAA1VBMVEX39/cRnf9QZ4T///8n0vFLY4H7+/oAm/9GX34AmP9JYoAAlv/6+vn8+vdsfZX++/fB4Pl5ip/i8Phbs/2VobGFlKfx8vOxucRUaoc8WHm6wcuPnK2gq7mVzf/R1tvt9/+n1f9n3fXn6eza7v/DydJfdI7g4+e64P8O0PEo1fByg5qnsb7b9vzKz9fy/P5leZIWqPyJ5PbT9fyt7Plkuv8Zr/pMsf8duPhl2fUuxfYYof7c7/8vzfQuwPjp+v667vqAxf9Wwvyh3fyJyf+76Pyz7fp/4PXE5fbdAAAPM0lEQVR4nO2d/WOaOhfHEUqILHN1VcSXuY0Kszprd9t1z7burs/L3f//Jz3kDRIIiBZwdfn+cm8l4PgYTk5OzgmGoaWlpaWlpaWlpaWlpaWlpaWlpaUl6WW9Ovbt/CZC3puLGnV3rsESefddp05132mwsV6+6XZqldN5jY59U7+BXt059XLtdLUliPXqQnNtQpprM9JcC4TQk4YJzVUtEG3m3hPIts4VgYo6rlcxgxCG0eH/hra5gmhSUXPveGjBCJqmafvewVdomStYj2FFjc1pBA6+r6cJ+HbM1YSTg/8B7XJFi7FZXS4cPMXEPUGIYDXh6JlwBUN3D67xja2OA/a5cbX69l5cTbd36I09SfVydbovFMpwd7q0VZfIcXI/S61cTTg4ho2tlavz7fxtXt/vRXKOc//uEn/8+vZfy4eHh6+fv2XB1svVhE9wdg5WrVy7byyVvr8QmN1f0g9vr86ors6+dJz9udq75ELW0h0eocPWy/WdkuvbhKvDyX88W54lunqQu2wFrvZuVt58xYY4Pzj03g5Xu1x5g49nspY3Tu1cDWCs6M258/YNQatceW+9PstqKZqCmrgaYA7pzR3unB+s+rle/3ov6KPA1blhoH8ts1yvfjTA1QjMp97cwaqf698itOVPgWv3nGL9K4c1BitYgtq4ev4JcbU+iUOSaAeKu6vcYTVXrBxXwXou/xK4Oo+Ma55qrAfNVVZ+3Lrl/XH5Xhy3uh+YM6DorrFSX0tzxVL4A9zlX36UuJaY19gQtMV1R1i8zCXbEUcXmyZcrUOD7gquPym55Sfr9+MK5tNhiWYbr+DKCASTQdmpIzFyxriaPXXb6ShCO+5A5b++p+iufz+uYDJ2y2e/5kxJFkRDCEtPhVthcYBzLZhvuxBuJ0Zpn1VxJSZ0eSvPC/jR6wL72sq4FewO28BwY+Wxrt2dgV84S78H7fweG65KVzOU8y3sa11l5lvOnSWbX0lfu21wRQu4k6tygjascJ69Sjvgbq64K89L7kLJ9ZpNCSSunbeW7C+IZuBzK35WNa4mzNwwGFQ5ze7txzVWSQhTHR+4ZT6WOC8oDg/E7mun0wrXCnYAS15HBRV/jb3sALmNsHi9tiDu8vM6x9XpvC7qsGJ3bXbcGpWPWxzRWry+F6YkSsatUDFulX+N9FNU4yooiWc59wx2diZ79UPM9WzYzxr2ixWywUla+AcT3l3dXsm5a4WfZW+VTVc+HwSLY8N7xV8v2EfvJbBXXxuIaxdwjf1Q5T+SCHgjdsNwk0LiaxR2ODeKT1bPCybKpkYwZT9V8YRsH66d7s0l/ew2XTC4OvsiZyYfcx5rsb4pGgJ2mbhvVb/Ojnksstb0e+x+Ba6JJyXrg4DNcR4p2b8/XVGd/cguHB41PuCxJ36ajnURW3YotoV57Y4PMJvtV+Aag32T16NMzenesFb//hLrppNb6D4qV9TLc3VzpmH3ZXZxBTN61XEVrjg3IKdcfoDjJKkDiuyBI3MFPbuI6z7LObu5juAeXGvRcbmuslz5ck6xKVRoN9fJH88VhQmkypZAc5WFrDxXMODOV39jVESruQpCAM1nfnbcMtCczwviOdU6AFWudlSu6mHrSFwR8OazELo5P0tODoWwv6iQB94cV4JMyY0djx2Fb9/If47PFQGDQE0m7hJXFJiC4k47iHZ12sa4Op8fYp//600BWKd78Y5EYb6/u8/WgbbNFUMdhOMUapZrkjnDybqwN/Gssk7bFFfnB4tef1aC7d6cC/OxzISrVa4UqitBzXGNwfrycoEN/ekcFduDhrg6n5NFAVWP7coT3usLqcu2xxXb1IH4+BdxNUAwhJmFGBduR0ER2aa4PqQhwPzh7qOVkXSNlrji0V8NVcE1bj2f2jDTFprDjbrTNsPVuVGvBLCj97nQzPU34XgbXMnj749zUHk2co4r6dyTfvZniO3BWjWINcU1XRtc5nszixVe/7y95YtgYsyrea5qmxpD9YebVRFXcl4082GWrI09r0zLurnSkMoLkWs2/MKjiT/PlrHO/qJ/CUUITXNFxkTx+GOoC89SzLekc4G3GLo5tOEiazZq5eo4jx+I/iOsBtBPPiTu1AvqCvBFLpobZ71rZZ2b3HLQzy0DurGlpO6+Ij6QEQLROswOYnCaaVQvV5baJuW2cRv6X0bOoUZgKTd43RZXFPm5gT1+/PkcajdXapyHptxp4UpuUifXdL1AxdWibiobtdI1WZZo0FbemxdKPOjjn47pVbgaJFtr1JNSYOBA9Atq5Zqubym50oYOXTtMl2RZvlFbeW9i5gp9/KWJU0WuuCWYD8ROK60ntMn1roDrpxa5prGpXE9l91uZK/W8Vm4S7OqJIYVa7cBjKdebjmAHPh3HDoApD1j5040qLrUPV9wcxZ4X67Nwnssjqokr90yVXNmI73TIX0J5B0nWeNuOn8XXrN1pQbBvT67E0vYYRGFtvGZ/oPPmkuh/Alf6yeVj4mddSh12+Q/580M7+YTMDMTnF0zs9+aaLoSLC2A1zwv4eqwwj1062XkBsxaflmRe8I84qDXOlWWwwcISxPx67G4h9o/K5xO2OY9N0t8+3v76dfs3/f/zdvLeONdxUMzV3JsrGLbG9ayYqzIt5qYBrvz53Ku/Gvn1rd2itkORV1x7XDu1r18VccJcPf1jE/mE1oxBXCT3K9jXgnM4+D2ShsCGniMW5DcVf/2SbC+gjGu/KcFajWtR/Y5Q9sNzA20hKzrxBwaesvpnQQ9nk4ZKv2fDzxk1zrXjfKVgr76o12HuXqdUv9/vnU9obge7NN0yh100e+nSKgyHinNW3MmXErZRsC75nuQcGDRvB+Ieu7y6OntQL28JeYXX53fZFdlK+2W4O2Xy2xVjeEIugK04J8nXFs0AinxY8j38HHcolNE0uM7dubm5KV7ndpzut/uLi/tvB61z7yFb3pCo0kZRtimmUaPe/kUYTeZlqLMupOOH5hPugdWWa05QEO6+gtzFo0pbdsnphs80j6g6VpiL5Ef2rkuMpaqNalzhTCqme25cwbpSyU9yt2G+9AxEvey6qiTXnGTqDcOS1uwcO5McC/rkxxgX+skoIjciBcGOyNXwtrCsTkguQrWVta7IGPlFpa4uhMNseSVYlBfGxufkNphEUczaHg+Kc2LQbByfaheCb5kr8ma9alpNJ0W12cBbDFbKk4aqVAsw75d90XCiOica9laj0qr7yaqX+w2PxtUoKfXJqCw3rajaSL0xQFltUtk55XM23KBSHWc7XP8Qaa7NSHNtRpprM9Jcm9HLx5rfu9PpXur37sT+xPdOvR22e6e7K9bL8xvV7s+Hyrk70hbuv51eotc16u2rY9/P7yNUp459M1paWlpaWlpaWlp16skObmkdtnzwz3GmURA1eIH4oJhc4UV/ypwazX13tbtZ+QX6hQcntissoQZbNyxMlD0t4XX58eIJ92qt4gsU7TCGa7vGSY/FuQrHeXtX+8L5Lk/aN9/qlewwhrM409d14S3Z9ssvfr6iXC3kBV66oToyxAzJgI82yPNQ3CgIxM2ZCNcktwjgCxnJhQjXuRcE5HoJV3wh5XedjijXyco3/dWIAUTByhzyBmhgsrfhgrUZzqPB1vfDaZpNJHJFaNEPTb+XZMWQrGM/ljkwUq5g4fs8wwIFvfS7Tkgk743uW2Hz5CswhYltwAUEbh9DQBFuRequbXc85T1O4EoStejl2Nk8m9skJjjpr76dWAdcBjo+wvs7mpaUT8iSBUkN4ZYeB/Fxm4z3SNpDCK5YAnbKFUV+ci1W0iZwXaRcPcyVJhqT/bmP8V6UpsXrCyDZW4EmtxKCtCAARWM+LKE52wYzFv7PlHa4lCsp7MYXwu3ghnzkk97tuhD/NIkdwPvo0cR4ks7oHuG9fk2LcoX9TbTBuzO4tMSvZ7NiP4qAtKRcbXsdRSPcMVklRsIV4GoZd7uI5mRPZnISGbc28bBFyHGuJKWS/lj4tzhJF4FwjZ1KgAB5qQDxNkmOLrGAgZ/UBrD+OrdinyAKOfiUK3667VXsESB6OnaKqZ8F2GQ29QewccHVH2TD/WO8LrFxYa7Jrv9+YutsXDkE6Ga1LPGdcGV2k5CzyVmcK9qkTfFFSfFVgf9K2uJSOlw8K1a/nY4IAlasQu6b1KKRZ9qPHcswrU4jXF3mbFLHFP8/54otpd1nHRN3w61RMi+g16WGPJtYfxIS51u4F9Knm1RsxtMF3q+wCNekDGvLDWzCNbbE7iD9CchDUMSVPgcBdjzssM3bbU05rvSpJJW/ocXtIFYCi/wRj2y0nPMgrmSXeDjzbDPzJo6TUQFX8oS6I1OY+9fKFbe2wxnptadoXou4GmiLnSpTePJr5UprjfDoOM2/m+sUJHEdwWSPCl4Olb68QbavsaOVGbeEYBXu7eVcyTyOzDJO0ckymD/A7tUaCnE8vodD8phSP4v5XGT6GUlccWdnJZ7kByIdH+NPg10ieloLf5pOlsHjLqQ6B0Tcncei76+w+8ljSv0s6nThg2wgT/zXKPGZEA6sEJuAhsLAl4m/bsnPdpJOlsG5biMLWNHW5s6+gbskiQKkKwF0vgVn+L2m2E1i07A0PkCqiefxhTxcG0gecDrzmnq0ckjiSl2tkveQPW/R+IBtTtdTW/Z6MDCxdpvNY+F2tu6RZzjIxAfwZMB2++sB3q+QBRqwITDdcDAi02ORKxm5TtTJMtI4IY1CuSlHITjCPpjzHcjIDgFjdijtr4DEW2waofUDPvm1yb7k+O98f4UnGMmionaAR0236foICcKKu1wkXGlckfc0K7YeHH+yVaHr8wUFsKD7NMCJzBWdbCSLCszGLpzGnQxX+844VgQsvJmLvMsF5hr2IGkabpJBfjB2+ZIrGpn0QsP0jWUg6senuNh5QIu4KY3lAmPonq6TRbQebqxgNOhPJymMzYhslSvNhZizP5/hl0OnS4OGF18ggewtBvidzmKZKkLRejqkUfLJEK9roWCxxi8+3OuFRs9OeKxG0qvD0XBMFrzkdSfGFeVeMi79mT9MP2OBLlK6HPiQXN8tedvrKSoYUxMqb3mVTKKeKvYGsvK3E5+iPBMbST+bBRPYNnxSyhET2uANGHa8TfsUhear3jS/1T3Y9Pq1PLlg1FvN5n9goQ5Sb5CAyrZN2EflGzBoaWlpaWlpaWlp/aH6P/Lk3aFzhXgJAAAAAElFTkSuQmCC;" vertex="1" parent="1">
                    <mxGeometry x="98.5" y="670" width="133" height="57" as="geometry"/>
                </mxCell>
                <mxCell id="76" value="" style="shape=image;imageAspect=0;aspect=fixed;verticalLabelPosition=bottom;verticalAlign=top;fontSize=18;fontColor=#000000;strokeColor=#000000;strokeWidth=2;fillColor=#E6E6E6;image=data:image/png,iVBORw0KGgoAAAANSUhEUgAAAVcAAACTCAMAAAAN4ao8AAAA1VBMVEX39/cRnf9QZ4T///8n0vFLY4H7+/oAm/9GX34AmP9JYoAAlv/6+vn8+vdsfZX++/fB4Pl5ip/i8Phbs/2VobGFlKfx8vOxucRUaoc8WHm6wcuPnK2gq7mVzf/R1tvt9/+n1f9n3fXn6eza7v/DydJfdI7g4+e64P8O0PEo1fByg5qnsb7b9vzKz9fy/P5leZIWqPyJ5PbT9fyt7Plkuv8Zr/pMsf8duPhl2fUuxfYYof7c7/8vzfQuwPjp+v667vqAxf9Wwvyh3fyJyf+76Pyz7fp/4PXE5fbdAAAPM0lEQVR4nO2d/WOaOhfHEUqILHN1VcSXuY0Kszprd9t1z7burs/L3f//Jz3kDRIIiBZwdfn+cm8l4PgYTk5OzgmGoaWlpaWlpaWlpaWlpaWlpaWlpaUl6WW9Ovbt/CZC3puLGnV3rsESefddp05132mwsV6+6XZqldN5jY59U7+BXt059XLtdLUliPXqQnNtQpprM9JcC4TQk4YJzVUtEG3m3hPIts4VgYo6rlcxgxCG0eH/hra5gmhSUXPveGjBCJqmafvewVdomStYj2FFjc1pBA6+r6cJ+HbM1YSTg/8B7XJFi7FZXS4cPMXEPUGIYDXh6JlwBUN3D67xja2OA/a5cbX69l5cTbd36I09SfVydbovFMpwd7q0VZfIcXI/S61cTTg4ho2tlavz7fxtXt/vRXKOc//uEn/8+vZfy4eHh6+fv2XB1svVhE9wdg5WrVy7byyVvr8QmN1f0g9vr86ors6+dJz9udq75ELW0h0eocPWy/WdkuvbhKvDyX88W54lunqQu2wFrvZuVt58xYY4Pzj03g5Xu1x5g49nspY3Tu1cDWCs6M258/YNQatceW+9PstqKZqCmrgaYA7pzR3unB+s+rle/3ov6KPA1blhoH8ts1yvfjTA1QjMp97cwaqf698itOVPgWv3nGL9K4c1BitYgtq4ev4JcbU+iUOSaAeKu6vcYTVXrBxXwXou/xK4Oo+Ma55qrAfNVVZ+3Lrl/XH5Xhy3uh+YM6DorrFSX0tzxVL4A9zlX36UuJaY19gQtMV1R1i8zCXbEUcXmyZcrUOD7gquPym55Sfr9+MK5tNhiWYbr+DKCASTQdmpIzFyxriaPXXb6ShCO+5A5b++p+iufz+uYDJ2y2e/5kxJFkRDCEtPhVthcYBzLZhvuxBuJ0Zpn1VxJSZ0eSvPC/jR6wL72sq4FewO28BwY+Wxrt2dgV84S78H7fweG65KVzOU8y3sa11l5lvOnSWbX0lfu21wRQu4k6tygjascJ69Sjvgbq64K89L7kLJ9ZpNCSSunbeW7C+IZuBzK35WNa4mzNwwGFQ5ze7txzVWSQhTHR+4ZT6WOC8oDg/E7mun0wrXCnYAS15HBRV/jb3sALmNsHi9tiDu8vM6x9XpvC7qsGJ3bXbcGpWPWxzRWry+F6YkSsatUDFulX+N9FNU4yooiWc59wx2diZ79UPM9WzYzxr2ixWywUla+AcT3l3dXsm5a4WfZW+VTVc+HwSLY8N7xV8v2EfvJbBXXxuIaxdwjf1Q5T+SCHgjdsNwk0LiaxR2ODeKT1bPCybKpkYwZT9V8YRsH66d7s0l/ew2XTC4OvsiZyYfcx5rsb4pGgJ2mbhvVb/Ojnksstb0e+x+Ba6JJyXrg4DNcR4p2b8/XVGd/cguHB41PuCxJ36ajnURW3YotoV57Y4PMJvtV+Aag32T16NMzenesFb//hLrppNb6D4qV9TLc3VzpmH3ZXZxBTN61XEVrjg3IKdcfoDjJKkDiuyBI3MFPbuI6z7LObu5juAeXGvRcbmuslz5ck6xKVRoN9fJH88VhQmkypZAc5WFrDxXMODOV39jVESruQpCAM1nfnbcMtCczwviOdU6AFWudlSu6mHrSFwR8OazELo5P0tODoWwv6iQB94cV4JMyY0djx2Fb9/If47PFQGDQE0m7hJXFJiC4k47iHZ12sa4Op8fYp//600BWKd78Y5EYb6/u8/WgbbNFUMdhOMUapZrkjnDybqwN/Gssk7bFFfnB4tef1aC7d6cC/OxzISrVa4UqitBzXGNwfrycoEN/ekcFduDhrg6n5NFAVWP7coT3usLqcu2xxXb1IH4+BdxNUAwhJmFGBduR0ER2aa4PqQhwPzh7qOVkXSNlrji0V8NVcE1bj2f2jDTFprDjbrTNsPVuVGvBLCj97nQzPU34XgbXMnj749zUHk2co4r6dyTfvZniO3BWjWINcU1XRtc5nszixVe/7y95YtgYsyrea5qmxpD9YebVRFXcl4082GWrI09r0zLurnSkMoLkWs2/MKjiT/PlrHO/qJ/CUUITXNFxkTx+GOoC89SzLekc4G3GLo5tOEiazZq5eo4jx+I/iOsBtBPPiTu1AvqCvBFLpobZ71rZZ2b3HLQzy0DurGlpO6+Ij6QEQLROswOYnCaaVQvV5baJuW2cRv6X0bOoUZgKTd43RZXFPm5gT1+/PkcajdXapyHptxp4UpuUifXdL1AxdWibiobtdI1WZZo0FbemxdKPOjjn47pVbgaJFtr1JNSYOBA9Atq5Zqubym50oYOXTtMl2RZvlFbeW9i5gp9/KWJU0WuuCWYD8ROK60ntMn1roDrpxa5prGpXE9l91uZK/W8Vm4S7OqJIYVa7cBjKdebjmAHPh3HDoApD1j5040qLrUPV9wcxZ4X67Nwnssjqokr90yVXNmI73TIX0J5B0nWeNuOn8XXrN1pQbBvT67E0vYYRGFtvGZ/oPPmkuh/Alf6yeVj4mddSh12+Q/580M7+YTMDMTnF0zs9+aaLoSLC2A1zwv4eqwwj1062XkBsxaflmRe8I84qDXOlWWwwcISxPx67G4h9o/K5xO2OY9N0t8+3v76dfs3/f/zdvLeONdxUMzV3JsrGLbG9ayYqzIt5qYBrvz53Ku/Gvn1rd2itkORV1x7XDu1r18VccJcPf1jE/mE1oxBXCT3K9jXgnM4+D2ShsCGniMW5DcVf/2SbC+gjGu/KcFajWtR/Y5Q9sNzA20hKzrxBwaesvpnQQ9nk4ZKv2fDzxk1zrXjfKVgr76o12HuXqdUv9/vnU9obge7NN0yh100e+nSKgyHinNW3MmXErZRsC75nuQcGDRvB+Ieu7y6OntQL28JeYXX53fZFdlK+2W4O2Xy2xVjeEIugK04J8nXFs0AinxY8j38HHcolNE0uM7dubm5KV7ndpzut/uLi/tvB61z7yFb3pCo0kZRtimmUaPe/kUYTeZlqLMupOOH5hPugdWWa05QEO6+gtzFo0pbdsnphs80j6g6VpiL5Ef2rkuMpaqNalzhTCqme25cwbpSyU9yt2G+9AxEvey6qiTXnGTqDcOS1uwcO5McC/rkxxgX+skoIjciBcGOyNXwtrCsTkguQrWVta7IGPlFpa4uhMNseSVYlBfGxufkNphEUczaHg+Kc2LQbByfaheCb5kr8ma9alpNJ0W12cBbDFbKk4aqVAsw75d90XCiOica9laj0qr7yaqX+w2PxtUoKfXJqCw3rajaSL0xQFltUtk55XM23KBSHWc7XP8Qaa7NSHNtRpprM9Jcm9HLx5rfu9PpXur37sT+xPdOvR22e6e7K9bL8xvV7s+Hyrk70hbuv51eotc16u2rY9/P7yNUp459M1paWlpaWlpaWlp16skObmkdtnzwz3GmURA1eIH4oJhc4UV/ypwazX13tbtZ+QX6hQcntissoQZbNyxMlD0t4XX58eIJ92qt4gsU7TCGa7vGSY/FuQrHeXtX+8L5Lk/aN9/qlewwhrM409d14S3Z9ssvfr6iXC3kBV66oToyxAzJgI82yPNQ3CgIxM2ZCNcktwjgCxnJhQjXuRcE5HoJV3wh5XedjijXyco3/dWIAUTByhzyBmhgsrfhgrUZzqPB1vfDaZpNJHJFaNEPTb+XZMWQrGM/ljkwUq5g4fs8wwIFvfS7Tkgk743uW2Hz5CswhYltwAUEbh9DQBFuRequbXc85T1O4EoStejl2Nk8m9skJjjpr76dWAdcBjo+wvs7mpaUT8iSBUkN4ZYeB/Fxm4z3SNpDCK5YAnbKFUV+ci1W0iZwXaRcPcyVJhqT/bmP8V6UpsXrCyDZW4EmtxKCtCAARWM+LKE52wYzFv7PlHa4lCsp7MYXwu3ghnzkk97tuhD/NIkdwPvo0cR4ks7oHuG9fk2LcoX9TbTBuzO4tMSvZ7NiP4qAtKRcbXsdRSPcMVklRsIV4GoZd7uI5mRPZnISGbc28bBFyHGuJKWS/lj4tzhJF4FwjZ1KgAB5qQDxNkmOLrGAgZ/UBrD+OrdinyAKOfiUK3667VXsESB6OnaKqZ8F2GQ29QewccHVH2TD/WO8LrFxYa7Jrv9+YutsXDkE6Ga1LPGdcGV2k5CzyVmcK9qkTfFFSfFVgf9K2uJSOlw8K1a/nY4IAlasQu6b1KKRZ9qPHcswrU4jXF3mbFLHFP8/54otpd1nHRN3w61RMi+g16WGPJtYfxIS51u4F9Knm1RsxtMF3q+wCNekDGvLDWzCNbbE7iD9CchDUMSVPgcBdjzssM3bbU05rvSpJJW/ocXtIFYCi/wRj2y0nPMgrmSXeDjzbDPzJo6TUQFX8oS6I1OY+9fKFbe2wxnptadoXou4GmiLnSpTePJr5UprjfDoOM2/m+sUJHEdwWSPCl4Olb68QbavsaOVGbeEYBXu7eVcyTyOzDJO0ckymD/A7tUaCnE8vodD8phSP4v5XGT6GUlccWdnJZ7kByIdH+NPg10ieloLf5pOlsHjLqQ6B0Tcncei76+w+8ljSv0s6nThg2wgT/zXKPGZEA6sEJuAhsLAl4m/bsnPdpJOlsG5biMLWNHW5s6+gbskiQKkKwF0vgVn+L2m2E1i07A0PkCqiefxhTxcG0gecDrzmnq0ckjiSl2tkveQPW/R+IBtTtdTW/Z6MDCxdpvNY+F2tu6RZzjIxAfwZMB2++sB3q+QBRqwITDdcDAi02ORKxm5TtTJMtI4IY1CuSlHITjCPpjzHcjIDgFjdijtr4DEW2waofUDPvm1yb7k+O98f4UnGMmionaAR0236foICcKKu1wkXGlckfc0K7YeHH+yVaHr8wUFsKD7NMCJzBWdbCSLCszGLpzGnQxX+844VgQsvJmLvMsF5hr2IGkabpJBfjB2+ZIrGpn0QsP0jWUg6senuNh5QIu4KY3lAmPonq6TRbQebqxgNOhPJymMzYhslSvNhZizP5/hl0OnS4OGF18ggewtBvidzmKZKkLRejqkUfLJEK9roWCxxi8+3OuFRs9OeKxG0qvD0XBMFrzkdSfGFeVeMi79mT9MP2OBLlK6HPiQXN8tedvrKSoYUxMqb3mVTKKeKvYGsvK3E5+iPBMbST+bBRPYNnxSyhET2uANGHa8TfsUhear3jS/1T3Y9Pq1PLlg1FvN5n9goQ5Sb5CAyrZN2EflGzBoaWlpaWlpaWlp/aH6P/Lk3aFzhXgJAAAAAElFTkSuQmCC;" vertex="1" parent="1">
                    <mxGeometry x="472.5" y="670" width="133" height="57" as="geometry"/>
                </mxCell>
                <mxCell id="77" value="" style="shape=image;imageAspect=0;aspect=fixed;verticalLabelPosition=bottom;verticalAlign=top;fontSize=18;fontColor=#000000;strokeColor=#000000;strokeWidth=2;fillColor=#E6E6E6;image=data:image/png,iVBORw0KGgoAAAANSUhEUgAAAVcAAACTCAMAAAAN4ao8AAAA1VBMVEX39/cRnf9QZ4T///8n0vFLY4H7+/oAm/9GX34AmP9JYoAAlv/6+vn8+vdsfZX++/fB4Pl5ip/i8Phbs/2VobGFlKfx8vOxucRUaoc8WHm6wcuPnK2gq7mVzf/R1tvt9/+n1f9n3fXn6eza7v/DydJfdI7g4+e64P8O0PEo1fByg5qnsb7b9vzKz9fy/P5leZIWqPyJ5PbT9fyt7Plkuv8Zr/pMsf8duPhl2fUuxfYYof7c7/8vzfQuwPjp+v667vqAxf9Wwvyh3fyJyf+76Pyz7fp/4PXE5fbdAAAPM0lEQVR4nO2d/WOaOhfHEUqILHN1VcSXuY0Kszprd9t1z7burs/L3f//Jz3kDRIIiBZwdfn+cm8l4PgYTk5OzgmGoaWlpaWlpaWlpaWlpaWlpaWlpaUl6WW9Ovbt/CZC3puLGnV3rsESefddp05132mwsV6+6XZqldN5jY59U7+BXt059XLtdLUliPXqQnNtQpprM9JcC4TQk4YJzVUtEG3m3hPIts4VgYo6rlcxgxCG0eH/hra5gmhSUXPveGjBCJqmafvewVdomStYj2FFjc1pBA6+r6cJ+HbM1YSTg/8B7XJFi7FZXS4cPMXEPUGIYDXh6JlwBUN3D67xja2OA/a5cbX69l5cTbd36I09SfVydbovFMpwd7q0VZfIcXI/S61cTTg4ho2tlavz7fxtXt/vRXKOc//uEn/8+vZfy4eHh6+fv2XB1svVhE9wdg5WrVy7byyVvr8QmN1f0g9vr86ors6+dJz9udq75ELW0h0eocPWy/WdkuvbhKvDyX88W54lunqQu2wFrvZuVt58xYY4Pzj03g5Xu1x5g49nspY3Tu1cDWCs6M258/YNQatceW+9PstqKZqCmrgaYA7pzR3unB+s+rle/3ov6KPA1blhoH8ts1yvfjTA1QjMp97cwaqf698itOVPgWv3nGL9K4c1BitYgtq4ev4JcbU+iUOSaAeKu6vcYTVXrBxXwXou/xK4Oo+Ma55qrAfNVVZ+3Lrl/XH5Xhy3uh+YM6DorrFSX0tzxVL4A9zlX36UuJaY19gQtMV1R1i8zCXbEUcXmyZcrUOD7gquPym55Sfr9+MK5tNhiWYbr+DKCASTQdmpIzFyxriaPXXb6ShCO+5A5b++p+iufz+uYDJ2y2e/5kxJFkRDCEtPhVthcYBzLZhvuxBuJ0Zpn1VxJSZ0eSvPC/jR6wL72sq4FewO28BwY+Wxrt2dgV84S78H7fweG65KVzOU8y3sa11l5lvOnSWbX0lfu21wRQu4k6tygjascJ69Sjvgbq64K89L7kLJ9ZpNCSSunbeW7C+IZuBzK35WNa4mzNwwGFQ5ze7txzVWSQhTHR+4ZT6WOC8oDg/E7mun0wrXCnYAS15HBRV/jb3sALmNsHi9tiDu8vM6x9XpvC7qsGJ3bXbcGpWPWxzRWry+F6YkSsatUDFulX+N9FNU4yooiWc59wx2diZ79UPM9WzYzxr2ixWywUla+AcT3l3dXsm5a4WfZW+VTVc+HwSLY8N7xV8v2EfvJbBXXxuIaxdwjf1Q5T+SCHgjdsNwk0LiaxR2ODeKT1bPCybKpkYwZT9V8YRsH66d7s0l/ew2XTC4OvsiZyYfcx5rsb4pGgJ2mbhvVb/Ojnksstb0e+x+Ba6JJyXrg4DNcR4p2b8/XVGd/cguHB41PuCxJ36ajnURW3YotoV57Y4PMJvtV+Aag32T16NMzenesFb//hLrppNb6D4qV9TLc3VzpmH3ZXZxBTN61XEVrjg3IKdcfoDjJKkDiuyBI3MFPbuI6z7LObu5juAeXGvRcbmuslz5ck6xKVRoN9fJH88VhQmkypZAc5WFrDxXMODOV39jVESruQpCAM1nfnbcMtCczwviOdU6AFWudlSu6mHrSFwR8OazELo5P0tODoWwv6iQB94cV4JMyY0djx2Fb9/If47PFQGDQE0m7hJXFJiC4k47iHZ12sa4Op8fYp//600BWKd78Y5EYb6/u8/WgbbNFUMdhOMUapZrkjnDybqwN/Gssk7bFFfnB4tef1aC7d6cC/OxzISrVa4UqitBzXGNwfrycoEN/ekcFduDhrg6n5NFAVWP7coT3usLqcu2xxXb1IH4+BdxNUAwhJmFGBduR0ER2aa4PqQhwPzh7qOVkXSNlrji0V8NVcE1bj2f2jDTFprDjbrTNsPVuVGvBLCj97nQzPU34XgbXMnj749zUHk2co4r6dyTfvZniO3BWjWINcU1XRtc5nszixVe/7y95YtgYsyrea5qmxpD9YebVRFXcl4082GWrI09r0zLurnSkMoLkWs2/MKjiT/PlrHO/qJ/CUUITXNFxkTx+GOoC89SzLekc4G3GLo5tOEiazZq5eo4jx+I/iOsBtBPPiTu1AvqCvBFLpobZ71rZZ2b3HLQzy0DurGlpO6+Ij6QEQLROswOYnCaaVQvV5baJuW2cRv6X0bOoUZgKTd43RZXFPm5gT1+/PkcajdXapyHptxp4UpuUifXdL1AxdWibiobtdI1WZZo0FbemxdKPOjjn47pVbgaJFtr1JNSYOBA9Atq5Zqubym50oYOXTtMl2RZvlFbeW9i5gp9/KWJU0WuuCWYD8ROK60ntMn1roDrpxa5prGpXE9l91uZK/W8Vm4S7OqJIYVa7cBjKdebjmAHPh3HDoApD1j5040qLrUPV9wcxZ4X67Nwnssjqokr90yVXNmI73TIX0J5B0nWeNuOn8XXrN1pQbBvT67E0vYYRGFtvGZ/oPPmkuh/Alf6yeVj4mddSh12+Q/580M7+YTMDMTnF0zs9+aaLoSLC2A1zwv4eqwwj1062XkBsxaflmRe8I84qDXOlWWwwcISxPx67G4h9o/K5xO2OY9N0t8+3v76dfs3/f/zdvLeONdxUMzV3JsrGLbG9ayYqzIt5qYBrvz53Ku/Gvn1rd2itkORV1x7XDu1r18VccJcPf1jE/mE1oxBXCT3K9jXgnM4+D2ShsCGniMW5DcVf/2SbC+gjGu/KcFajWtR/Y5Q9sNzA20hKzrxBwaesvpnQQ9nk4ZKv2fDzxk1zrXjfKVgr76o12HuXqdUv9/vnU9obge7NN0yh100e+nSKgyHinNW3MmXErZRsC75nuQcGDRvB+Ieu7y6OntQL28JeYXX53fZFdlK+2W4O2Xy2xVjeEIugK04J8nXFs0AinxY8j38HHcolNE0uM7dubm5KV7ndpzut/uLi/tvB61z7yFb3pCo0kZRtimmUaPe/kUYTeZlqLMupOOH5hPugdWWa05QEO6+gtzFo0pbdsnphs80j6g6VpiL5Ef2rkuMpaqNalzhTCqme25cwbpSyU9yt2G+9AxEvey6qiTXnGTqDcOS1uwcO5McC/rkxxgX+skoIjciBcGOyNXwtrCsTkguQrWVta7IGPlFpa4uhMNseSVYlBfGxufkNphEUczaHg+Kc2LQbByfaheCb5kr8ma9alpNJ0W12cBbDFbKk4aqVAsw75d90XCiOica9laj0qr7yaqX+w2PxtUoKfXJqCw3rajaSL0xQFltUtk55XM23KBSHWc7XP8Qaa7NSHNtRpprM9Jcm9HLx5rfu9PpXur37sT+xPdOvR22e6e7K9bL8xvV7s+Hyrk70hbuv51eotc16u2rY9/P7yNUp459M1paWlpaWlpaWlp16skObmkdtnzwz3GmURA1eIH4oJhc4UV/ypwazX13tbtZ+QX6hQcntissoQZbNyxMlD0t4XX58eIJ92qt4gsU7TCGa7vGSY/FuQrHeXtX+8L5Lk/aN9/qlewwhrM409d14S3Z9ssvfr6iXC3kBV66oToyxAzJgI82yPNQ3CgIxM2ZCNcktwjgCxnJhQjXuRcE5HoJV3wh5XedjijXyco3/dWIAUTByhzyBmhgsrfhgrUZzqPB1vfDaZpNJHJFaNEPTb+XZMWQrGM/ljkwUq5g4fs8wwIFvfS7Tkgk743uW2Hz5CswhYltwAUEbh9DQBFuRequbXc85T1O4EoStejl2Nk8m9skJjjpr76dWAdcBjo+wvs7mpaUT8iSBUkN4ZYeB/Fxm4z3SNpDCK5YAnbKFUV+ci1W0iZwXaRcPcyVJhqT/bmP8V6UpsXrCyDZW4EmtxKCtCAARWM+LKE52wYzFv7PlHa4lCsp7MYXwu3ghnzkk97tuhD/NIkdwPvo0cR4ks7oHuG9fk2LcoX9TbTBuzO4tMSvZ7NiP4qAtKRcbXsdRSPcMVklRsIV4GoZd7uI5mRPZnISGbc28bBFyHGuJKWS/lj4tzhJF4FwjZ1KgAB5qQDxNkmOLrGAgZ/UBrD+OrdinyAKOfiUK3667VXsESB6OnaKqZ8F2GQ29QewccHVH2TD/WO8LrFxYa7Jrv9+YutsXDkE6Ga1LPGdcGV2k5CzyVmcK9qkTfFFSfFVgf9K2uJSOlw8K1a/nY4IAlasQu6b1KKRZ9qPHcswrU4jXF3mbFLHFP8/54otpd1nHRN3w61RMi+g16WGPJtYfxIS51u4F9Knm1RsxtMF3q+wCNekDGvLDWzCNbbE7iD9CchDUMSVPgcBdjzssM3bbU05rvSpJJW/ocXtIFYCi/wRj2y0nPMgrmSXeDjzbDPzJo6TUQFX8oS6I1OY+9fKFbe2wxnptadoXou4GmiLnSpTePJr5UprjfDoOM2/m+sUJHEdwWSPCl4Olb68QbavsaOVGbeEYBXu7eVcyTyOzDJO0ckymD/A7tUaCnE8vodD8phSP4v5XGT6GUlccWdnJZ7kByIdH+NPg10ieloLf5pOlsHjLqQ6B0Tcncei76+w+8ljSv0s6nThg2wgT/zXKPGZEA6sEJuAhsLAl4m/bsnPdpJOlsG5biMLWNHW5s6+gbskiQKkKwF0vgVn+L2m2E1i07A0PkCqiefxhTxcG0gecDrzmnq0ckjiSl2tkveQPW/R+IBtTtdTW/Z6MDCxdpvNY+F2tu6RZzjIxAfwZMB2++sB3q+QBRqwITDdcDAi02ORKxm5TtTJMtI4IY1CuSlHITjCPpjzHcjIDgFjdijtr4DEW2waofUDPvm1yb7k+O98f4UnGMmionaAR0236foICcKKu1wkXGlckfc0K7YeHH+yVaHr8wUFsKD7NMCJzBWdbCSLCszGLpzGnQxX+844VgQsvJmLvMsF5hr2IGkabpJBfjB2+ZIrGpn0QsP0jWUg6senuNh5QIu4KY3lAmPonq6TRbQebqxgNOhPJymMzYhslSvNhZizP5/hl0OnS4OGF18ggewtBvidzmKZKkLRejqkUfLJEK9roWCxxi8+3OuFRs9OeKxG0qvD0XBMFrzkdSfGFeVeMi79mT9MP2OBLlK6HPiQXN8tedvrKSoYUxMqb3mVTKKeKvYGsvK3E5+iPBMbST+bBRPYNnxSyhET2uANGHa8TfsUhear3jS/1T3Y9Pq1PLlg1FvN5n9goQ5Sb5CAyrZN2EflGzBoaWlpaWlpaWlp/aH6P/Lk3aFzhXgJAAAAAElFTkSuQmCC;" vertex="1" parent="1">
                    <mxGeometry x="457.5" y="323" width="133" height="57" as="geometry"/>
                </mxCell>
                <mxCell id="78" value="" style="shape=image;imageAspect=0;aspect=fixed;verticalLabelPosition=bottom;verticalAlign=top;fontSize=18;fontColor=#000000;strokeColor=#000000;strokeWidth=2;fillColor=#E6E6E6;image=data:image/png,iVBORw0KGgoAAAANSUhEUgAAAU0AAACXCAMAAACm/PkLAAAArlBMVEX////kbi52dHR2ipn7+/sxOUAqMzr19fXx8fHjaSPY2NgkLTbh4eEuNj3r6+tof5DR0tPjZBYZJS7Kysqnp6cfKTLiYQkUISvCwsJraWmXmp2usLKNnamClKJzd3u5ublnbHGVlJR+gYX98+45QEfyv6lAR07tpISIjI/76+TmeD0JGiVaYGRQVlvpi1720sP43NDnf0vrl3Hxt5+st8C8xcybqbThVwAAARcAAA5j/GHUAAAPFUlEQVR4nO2dCVvqvNPGEbpvdG8BtaAim8ii+Pzf7//F3km6pdhSlm4ce1/nKJZu/Jgkk0k66XRatWrVqlWrVq1atWrVqi4pklL3LfwrUswB0kSo+0b+BbmDrq+BWfet3L+8ECbgnNd9M/cuIYYJOEd1386dq5vQgKv7fu5a0iBJ06v7hu5aXpJm96XuG7prmUmY3UHdN3TXamkWqbakF6mjVqjbOvA36aig/7HuujCBLotR3PnUhPf+x0zTxB9+MMnZ7XW7+ZrtP3dL0O5zP/vabF8zdh0ROF+oou+30QojFKeMaDvdLzVN40EPWOgVbFjup9u0/aOGaDD/WzDjWm7Apu+wmT1oIcVjAVN+tvl9jDLBEblugfXHXUiJSuUgLRi53dtaBsmIqGbvf1soJQnC3+uhxwGfwS9DoqZLOwdlANReTm8p0pQvFsSBFCwJSUBSseCFJCkKRzW48iBsU0q+Q8147RyUvqDEZzVKqUrgQ0KvWSpVaCeMV1AN1wO5hiA10/BfooozsZn6Os8sSQOd5VpNCIcl2F16wxSrSILhjUzPkDKq+voUdl0GKrl1mtXunOTJT9OvERnitQTTzslJhmeOjIZ1DgRoe7uDRK252F1QxklpuwV56qg6LArhsSjJHZpqoypSyjVNl7yjiws5YZ72rBO3KmVBTEgwhw12xF6vNczIPAsrzWdKMs1mtkngrF9TYybMk09x50uWN2kmzi/7NpZIuLRXK29Y+SXP0P6mUh5K21d+40M1f5+q9VkITCjtu6rbWaN54/a7k1Umf6ST+y4rxik0Lo6aARNF32zeD2p+TbG+/FAnb2tZVKvG6TZt2D4NJuL4OZtuFqmd8NfFZjr75FPDTPyu0psfNmw63v4YCZBczjaL/CMXm9nyN1H+s/x7jmTkDR1UrJl2hBJIXhAVekVEk0C16hwlZSLl71ShNqSfyYNRpg5RnNb2CKiWEQQpXNTQrehK52lBWKZmX4PS13ZmE2eyrz7PRaKGDXOPiBK+u9GiNjuiCq2iYVeGDWvPwxaItz8LMKftZ1jg+Qo6RcKkScWcotiw0iyEJRLwDM5YegTEbc6jChSLBly4oL7cFVjNbYO4Hl9uWVdMsxmjGRQeG+Tg085QucwchrhW/mAIX6abRLmNCBQDSUnCJEELVCrt/UVDjufodW+X264L5qj2sCarECSRPvmyIrwo8lxaD1MZmTXXmCwa8ydJgrY21JiFG6YvNCqS0xCZL/P5y4syQg3zHOpAczw/ZxiSc81aCzmlSIIgcb9ahU++zFj5zM4xTknw1pLQeV4ByZXSGc851cnFyRmmW1/r45NU0m5ga9uldgCndl7NKXzAj+fxc6ejc5IMr70cB5IFlnVVmBQnCaqQShJpX7ZLuLFzXHhMc6yODaDpPueejzNGdbFkFUFVU4p3pNf/Su9Lb/87HdXzabos3bEQTWX9caKnqLgjox6WQNLINkpfabMvCxGa1Ra83KbUy2jiW/jSp9kxTZpT0eth5gCk5Hq1zOxgFdVQz5hIVlox7/f7vRMXeYL3Ay4hzc4aWiEHvoJJOk1K8Nw6wpicYBhqjlGWrX6v93Ti7cderxfSXHd8msL/Kaicrz/S2nRO9WqYwUWBUbqCUvtMp/Npdqjgf/Aj5dYpCT5T5dbBwlWNwieKCsOPyw+6gGaeOMGt3iwBZSkTRMcr6/3yo4qiCWZpVG6W8P0BylLK95iRa6OpCOCVXH7xm8QJHlTRZVWVtdHkJFWtugHAVlnmReuhCf2OPF+5cLHHBZyYh5qckprYjn9LnjkcCSkHkn/DD0wz+Tb07kaekNwbb/fM0CdP0qSEw/f3QYhPEdCUDt+Hw+9WE8UVqkZJSe7IPaorx7rl+FuUleXEvd7RSlyp4S7OGPoqa8cSRcuhg26cuxKtt/g8nGNZNPwWLVGmaVkEreLOi6NbluXI8Uyqtb4Cl3vuWKswZQ9Jk/oBVx7U73+HmxDNjtTr460/ye8Rx1+vAXKDoMfq/W7swJDEgKZOi/GT9iOL1gMaLwwz7pgrhhFFBkCFyBk52sPf30KwZNgMkkFOYIzzFSNbum7Jsv4RYhgz4rDzYdG0GPZjCJpKz0eJfjwFRyCaaj/Y2utFnwONClTe70BFTU37/sYMHdNkMmjKH+6KccbD4bMOPHV/r6FI7g/n0VFj+v7+jmjCr3fZp/ms09Z6pKre2qLFcbD7MyOaQ122nP/9tk0OUzyo6jci9+hvfMQQo63+rnioqmqU0GE13Qy/4Qyac5F+k60P/F2wz2BPDo4nKg4dHooKOg0GHJ6SbIVGDq0H9jeHcwazLJ4Z5plm3jyuE54hpvkDMP0Sjoy073e1Ec1gK6Z9wOOnJ4JdJUkxTE/IvOp5NGOj6ryItOzXl88MbXnE7uFIQYImwhzVxh9QDXTCYxlmTd5ITLMPlhlsRGXbR4ho/oSfCFknx7GVozxllljn0ZTp6M4p+MPB4FQ4IOxCrhlZjk9J0IT6QI/KoqHTjn9SoEknByBimofDIayP2Ygh0OwH56Eo9Ef1I2asYZrZZol1Bk0AIhIxLxP+9Cu7d5le+US4FS1GMyITNN9l4qRsdCZkm8nkMqn+JhVVnKG/CeWbY2OTrU6KZ3q5vazzaOpEnBD2k/0yalohHHi1ii5F0oTKlWj4O29yULuiWiI5mpPuvSdpYpRwt2w/ap0qkjQyzwnhn2mbZMOpQzWKX7BOWIWuZaISJGm6cNLxc6S38IsAmk4ykpugyYLz/oOUoAkkg4KG2vf8z1aYBPPMhzOvoPkm05Z/CDDBO8GhVjw2Q9L0wAVgYskhdUQzWW4ImlzgvPt6xD2nZM/yqUqaqnn2tIabaAqOfwiqSuOPStI0kQdAivbbrVM0Bey2xzTRQ8FH/XTUDJ35AW/VBSyvoimGJR2VcPzWmmxqEjTRadLq7hM0kf/Tf/Q7wH4rhF7WZJvCJSzPboWIT85FrZC/l3fc1BzVm3ra3IETNH8CrwgnTfjVpvuqqN6UzAsfhIlpcmJMqdOZiAmaBCzXCj0k7PKgPryYCMGRNCUn4V1FOkGz57fe6JH/FA/Jv2yvijad8yaXTl2KaXZkcB+j7e8ySTNZkAPvHekF2iEo6Bb5nF3C33yTw+5PQtk0MakwnMf1U2lW4m8aE+/iEABBc0z0FD1wgwiahMMJ/Rk5jsRBOyRCcV+RvhgiFf0xtGgrxTgzaAJFrke4So8J2zyEm5+i7ntpUszhFSMiBE2gIsv+KVwcKyJoynRwbkGEjiUxUwXaITkOeIT7x3Ulhfb//YRoOk2Ui4JApTz1EjT7wQ1958TpC5Bx3aMGBM0OfHCZMQXJHTviC5Og+cY4Q4mihPkK3CNyJhVyKImSj+8EnHrGZTn/cGMF38va5VDeDsF8D4w4SRMV7IjQAUeLVOHw0+89JWjCZollpZ9+2aZJmZPrhupImi58cFrUHYsR1x0r6voBTctgGNGxLAfAokA8cWGgeTwMBNYqW84qcKNcB/rkFtQctK5bIfeYZpAdJaZJBbFiHCiKGm+g+QM22fe39w+dEqVMRleGpz4Imh3PEVHQXFw9Ux3dWgUFGmg6irJ2RNSVsfSjYgtGbB09Gibp6DSMFVTikn+oDH0haxUcDdb/PyXMNYO3xHE4LnDd+49Q7GEzfv+xDwS/gzfKhSld/0AR1HtM/EVww/Xb23qOnKyRacYlHdmRMV+v18/e8bcGLThzvI2b49NEm4Xhx/vb2/vHfBQWIM80h1xiIO4ACl+rP09PT9+oMKuHYFANXsCxyvfj09PjodTApnSxXxQLPJi84dqAZsa1V+kO5QlVm67nUnE3wOT0owY5RSdpQk2hX8CGLNvN1C0PYUKTLOZluDhFcxgP9eSp8RyxbkkDwL7Jx3HG3zpB0wTTXqe/Reo+QGLd8BSm8cYQ42dZyqTJjnU6EZZP0R2BROKuXd9IWes6NOhy7kfNoMnNUYdple1N3BXGQNK1BV0BX51xPvJHO4YWs0qhyUK3iEkNt2HdHUgs5VrbpP7nOONz/FRz/bFOK+ljy0mdcV6A6vsqrq43jWv6ukT2Zm9cVi62bTX5PdKkVpr9cFFBEqjFsvxrZMq7MuBxnT6DJFDl+eGLyjL5pMqY/Oo9l6ftf7swPXM5F1jwJWejyJNiTvJnddwmP4s6yrO+45dnZDe7Whtb+yrx9GdJ8SZmCc/IUHiyip/rH01aQfa40Xi+vFbiy37gS0olcIkoYTQZjgp5/idEiNdKCDASb+8eHuySzIfaa+XmSblEiuGZw+HIVSXlwsmNlJ+bRwlWmhAkZIxsetW4tR9KykWxRWln+BJOfLVYBS9jYJojtD6EGiy9EawrcbxOh79Eh4GEluk4xZAQytTFF9/wUjO7ytR8lwjNrheAk4uX3RgheZFc10X8glVOzgGYkJ+Sr9DkUp0w1XnFSU2boC8/r5a9L65x3y61KtMcNkrLMMHhZcvaZCrKI9eYJqhKLcJcprxWgH1uohyHD3X2KevTNMpBytufN2WnoKbLOP+mXWa/oMEickDz2sPVyWG3ezIbdPn5IpuqJZlxmLd3X5cDxasLEmepMA100/R6tKgDstALkmovpnv+KEl5pSnKm6btr9VbcML3aeaSqqFet1973v61JgH/N1ugUJu0xXB4TeN3+6/NNmU1An8pgqWWungov2xAsKNOpeLEZHi8bi1aKmM/Q9rvd8sHf2PmKqx/HOYJnDGjs1ZwaS0Ta1PU+kItTKTtrauyYWmVL9bUUL2eXrHpLNWwLltjNbt1nbtGRjRr0+b6xUEfUJX5R/vmWXq9frG7UjNK36uuXSK06Pj9P6LX2RXFvfDFIf4dLfYX8uTrn4XQIOHsneSGxT5tLcAMafxX67BH8roDpG5iAujr7DjKlmGW9m7a+uuR2JdB19fgJTm5ZLPXcoAC8OvXcfsXRXVJHVkZ5a9WmYYUxZZ2LcojTRI0UybeLzaznWbjAFwoTbMfPi9a8vKPSBokaA4yZny/bjdfOLaJYpzTTW5M/o/K7CbVuOWe70rdY9V9Q3etwTHN1tu5QS3NItWW9CI1bFuhAiWc5yG1Ok+53nurC8QmaDZjYd07FteNoh7d2heD/Qc06g4G6N+ZST1anRYleKMTeeRbtWrVqlWrVq1a3bH+H8JhN0YSOPU9AAAAAElFTkSuQmCC;" vertex="1" parent="1">
                    <mxGeometry x="172.74" y="554" width="134.52" height="61" as="geometry"/>
                </mxCell>
                <mxCell id="79" value="" style="shape=image;imageAspect=0;aspect=fixed;verticalLabelPosition=bottom;verticalAlign=top;fontSize=18;fontColor=#000000;strokeColor=#000000;strokeWidth=2;fillColor=#E6E6E6;image=data:image/png,iVBORw0KGgoAAAANSUhEUgAAAVEAAACWCAMAAABQMkvIAAABJlBMVEX///8AYYvljgD///3//v8AYYr///v9//////j4//8AX4rcigAAXIbljwAAUXgAVHnXigD//+4AWIGx0tz///JYiqBgk6jd8vX357z26Ln/+d3nxYEAWX3768Tu1Zzz4Kzv/////ujboUPWjA7Zp1Hq0JBCepTC3+bcr1/YnDTWkyR3pLn//eL+9dQAVYAjZ4bQ6vCGrryVvcujx9IxcYwAW3uUvMpShp//98/px4TKhQB9qbxvmqwASnIRYH5CfJTd6u1ji5oATmqxytJzsMgkaoTj//+VxtYAQWGe1eWiu8K+1NmAmqFWhJaTqK3iuW9LlK0/iaq25u/gtWT24qvv59HkzJvIjyf12ZH/+sH//9LJmkfcokLjtmXir1P86aTnqjzm1bPi4hkBAAAYd0lEQVR4nO1dC2PayLWWPJIGCVkCAZYfGIRfGMfmjeMHgWzbpO3uTX3vTVq322zb/f9/4p5zZiQEFiBv7M36Rt96HYwlI306c15z5oyiZMiQIUOGDBkyvCAwTdG4whWNKYzBd86+9hW9dCCRQCIz4DswqmSEfhGYwkFAFTMITPyJcZBWxr/2Vb1goGxys7Q1HE06J7cl3ySRBUHN8Iuh8aDierZlWbbnjl4PfM6ZlgnpF4CZr9u67nlIqmrZzmjczfj8MgzeWPZkfHk7rTqepauW9+Z101QM0AfgA4ALwBRpq6IXGVYATNEH26o24aXpDyojMfzdSpcz4QIAh5LUTLemhDm07WHAuGHA6+7l0LFVVfUmfVOOfcYMYhWRkZoGvAIy2qURjghKYKdATp3pq1e3l/1BE82/IsjkmYJNAaYMHMvbMqWGBFfUbE4dMFJ2uw3mCsz/cNxvBhzDqUyPpgIL3tmWU0LPHsc2Ehf0wJ2yLd2C8Q/m3/OcybgUgIxmoz4NNN4EkXSb4IUqklKmdLem086kWq06TtsGpwocgEnfpxQAiDHLRHUFuKKZPQf8pyZqSYw/NSSVQ1jq+91uc/BqWG3buqrb7rtLnzNMqiCvmZVaAqYYGjdfOao96fLQoCNpACGLPOj2T9w2aFbd6VwGlAkg3ZCZqaWAOHSMUupzjShkmhKOaymIZrfXccBTtZ3OICC2M29/GbhCmjHYAoN/4stRj6xGrj28Boq5PwBPFTwA9wQCKhTgLIuaiChvF7z2rHYlCH8kM6UoIgqVBwUlwakz9pWMzjVgBg+mnuW8MgWRRCE3TZRRbUaeCXIK+rRd7QfimMw6LQOqRb9jq+CWyncM5e1305NBJLRyviToTTzwpZzXlJ/KbNMyCLPedVUI8EN7z8yxY7sfAj7PG+9uoYnyqn1TnPkVLvcFgHFK3F86qtOPBjNHN9W5jfjkXBh4Xup46ElVfDwpE9NkkLrkfkcHIUWZFOSZY0+fmPNH4SSUD76WbnkQE2SMLge57K88yy1heE8Gnin+yPsQ95IY2nhMAAxGHgZRfZNltmklSo7qvTb5zHe//F0z4TAQ5+60rYOBGgcyD5AhESwY2pbTjdmi4G2i4wmCGYxdiPXbW76Y7v8Vr/IlgfHLtur1eDQBAqGRluzLc2ZeOiCl3tQP504yPITG/KplgW2K8ZNIFcWmvORCBNUe+jwjdBkgcnrlgZevpLA36Dg1R0CpN0QpzQzUMnSrllcxY4EnRfYPwak8Cim1vOH7TEaXgGuKueWp1Wb40xpoSpcoPQk4F5nqZ7/EFwYkpOnKabw09ltIqe5VAvRaM2f/IUAdmpW26gghXcspBlcl11JV59Zcc+i3jK5ryXzJ+ggTJ50Gb5DSfpaATgYE7bznqu1bME5GmmHPKJ+iWm4zy5UmQEzIBVMInAZR5n4FGOVNgkpbV+0JZaJ+jat8cYCYvWrr7sBMmVdiiv/OViF4CmjcZwHpQzA+gPjSvTXTMgr+ga5aDkavYpI0wxw4DPdL18KBnxIav3VUC6vRWBbiLwEvVS17mnKBA9dYcIKO/pZJU6QZo4sQqWYIRtOVNzEkHuICsPfdZ7+2FwlM3vNxW22nHPWU8cPgVffGPNOjSeA40WzpIz/1+GUUF6ioSRWejfoHAClrVi0UuLRn4AKzimfhOVmFaRLI1le7j6kSZUpJaNIsYZIENN32lvmoQJ2BkKoqmPtcxugDcFSKTmlJqnkJNKxIUXWnmRGaAN5vW6MAX6WUUhzqzAT/QLWngZYtKFkEuEK2/RqTztE86HqOmMH9iaWq7kARS0oyCxWBKcHQat8KMkMhXa8BMHZ1LMt+Fwhzn0lqBMb8Krr3RKZGU3RpyMGiiKFtqU4vo/IBuo6ofsJqHEqZUiC0bhiDaDYdS9WrvkJqIhv2MzQd1SWbjWkPDTQkTzGEGa7igVgUEyaawjOTH0cJGZV5OazY++H3PE0imaPbpaso35mEzoMYpQwILSNpVodBSkeK30IsGs77Pe9Fvig0HV04+DCQQTlObKeZtrTJH6EH1csqoebRdVRM4Mu654lt2RXTSFfZxHttDO/9+AKTDFig1+6JrBwDY2NZKYvL0PMCD0qNrS3PQABWQCrxlYGeFITr9knKmhGDgxJG45TVQ8wAEfqWbXUCckRxFFu6ikKaxnxzxjEHBcYpK9ebAYjsexaVPtEgBqcdNGknSDfhwcE4YVFpxTcX3v+mAabJu6XcMdhuy6r+wVVBsaap2qHZfhc0rzepDHyiMZt4ApgntvUuQCpKLvqX76e2NUo10YnVeuatI1txbTVNGRt80yKKDICYOZdoXPquirNHWK93ElCkue50jTHzcuR4tqpjJ45XzVknnm8WOBf6zrY7PmN8jIF6XzFvPRUoTtFNDxeYghNbGr9zPexx5LnTQQCEat80pYxzbFgEmpRXbAiBwM6jn1/t8lReqeggE3T7FRBVbBsxLJnf9rDHzD36QE7fRH9dreLEfcmhcS/X3aT7Q/x9aTwEUm1n2jTlcvxvklnKOKFQupU/jnR0nDB26jmqe8vF4E1HC8b2PGhuVYFTd+zjZDX/dhMoHJcsqHZbV632mAg0x45OoZCWvmqEKsnNbuWNbXmjPhWkMuMZr/q3CixchhvvdjwdvHtvInLy6BTZo276JTa0npw0L2++dm3LGTbTzrD8vwMX3Yf820nVHX1Ae0Q8mD0Xu+2kX7VEnSWoMsUcvGtbdvU2+DYHvTDn5AQ1m11T1i1ryIvrbJmPrWwC3Qui6sPjEGKaIQrnsZPJ8M2tmbLqVlY7h2vNeHdc9Wz3FptEfuNdomMJEqYEr/404FSzy1MZKCYKTsjjMrtbrt2e+lkfwxhAE5R+NyAT/oixT32N8AVvduzqUM4+Z0CgyAXffZ8+pySPMalNZLfZ/XNVrh5/xot8WaCWet//xZRbkKwFRF9+czD+MOxMRlWEblkw8L9FpzQBcscRcCl/+K+Arw9/0DvwS1sd18F+uwTbbjtu58PbrBJ6DsCG/5e361fWMv7D0HWowS72hHaqk+G00ht0AyWrLZ8D7pGhmOZ6U0/FehDGqtRce9D0/cAUneF4Zu4fgvbIWXdM0LF1VfX+0PRNUWWiCSbJ588QQqPYPIWIoqvlgpDa0/ehZyDbPz+bgL7k55SisEwsOlFVyztpUu5FnvaSb/sReHpTQZ21zVtss2WPev48j8kfx0XrXUyrdkuDXq8HylcWsK56hBqFdUF3cNnr9UukYp6qCQ0FJyANuVy5uAY5Jm6AC+2GgLOSkTNkI2w262KQi/5SObdqwTLvu+g5tas9X5lJ9jIx1USWerA1rDqu53nt6qTS5GGjzuW3zbjf61QdOMF1qp1pr8ufpAEVCYVR3t2uXd+dnh6txs+GCHxIHxq5Bp318TQJd3fH9e1dfAazMlL21+gDTv9qrGgXwXjzxEFX1Jv0RKy0ghtqu8tLHcfW8RQdvus2djtcbcjASJYm9CGgYtDrbVexQ+ITgLPcee1jq5DP5zfWoFBDtYZjg3Ojsb13dIZnydPy9DV7nc8XDs+OrveLxqwIYrsQ/amdFaURKL5Bv+rhZhrtyaWpxOU86RYUXnpj0+YbKjKKXw52l1jxHBgzB29wvx4dT0JW4bMqT9LcJ3exB8SspnJzYxO+NvK1HGksTYOH8HnFSZvRq3zhoHZuSP+HzTO64nZRvvwx7qYD9zlsytXNy4ohNSruE9DDb854ZaILhoFLO6Do+BQsiihwhduXgrFyvZVfYGGljNIQLG8fFVIcLzk92s9JaVlgdGm5KIkk592tkQd3a1d7gbJKSWi0Ul+QqWING/6HFdcrXAQWTO3oDPk0sMroy/iEK8/VD1Myg+TUDNojLFc/S3sK8p5v7eTADWKpR70iukIwsemDh03K/dUhaMnRQxm1Q368yvJ6VKyAwSUqSL1lR5TaXzrsGTf2z2bCiYqvtRI/o4xqeFKMMTztIQr5mOifXeBWYwujPt01BqWtUdtuT5phb65EUS2JEQyEdv7bEy90LMJYrllwMyQc70Bo53/sp2IUlOhePmQm37quX11c7K5CmXzt4sfoJBTAvfo+nLeAq+3a6Uz683tlIuNxjMr1e6Z/OXTaoyY3lpftRIxao/8dCfWoW97UTBoI8Cc0A7MH4gTV/eOWfAhfzCg87Mbn6K5bVzmahVwFuiB2FRvzh8fnOTDm1BZbHkNNx7liFHcO8kQ7EN/aJZP2C2SUmpwFg4kzagKhy3Z8iDH6HpdFCvuEZeuJ980YLqaQO3MN32/ZKNJfIqOzlbAXSA7Y8Y3N/HFO6P7l6k0T57J6IZLQwnFZSVL/5Nobgno6btvA6edHMko1ADSBz4PeCNtzafyha4qfTowiKfrIx10k6CU1lU+6fUYLflQyYZYzMLcejPr5z1hfAyuPR0ZvooH5yYjIWAqKullt5jaBgqT3k08q34VHFuq/VI9y8oHgYXcrf+qZVLOT8GFYsUrGHpdD9tFMkcwld5/CBikjfAAopPbQNOWojzFqPHIh0OwJXIW6bjNfN8T6w7WBmGCUXNSNzw3Mz2nz1Xdy2xZNyR3nN7+MUR673mDwpwEa06TjZpYJGMWidfKfVPtdQAHJ3D3hTmfIIRxi0Vq/BBnVuBli+WJMrmlmEMKUG/4ho5sRo+nAahEvGweNpdYUfgGMfrGMxv6g0v3uLUseDiGjOi3Zpe4n6LlT+eqi28s0cO6lEtXRxUpgVOkNTwDTk5PheBmh2I+pN+lIfDDpubFIRjeA0WS7+EBvxUf9QWPV6HhKRmlppLlsWd5MRrE9EtavWyIinbzH8TMno1wxX3vCBbWwfxdPYJSPPVug/YEvb6XMX7UtORd2YoryjasbYTowwjRSJnXnZXTVkcbTMYoxqMaXdimeY1QRIRQ6ULhobfEc7OAj4ySsbVeSZBSpolDfsivLpsbQMbqNNPCJKdiLWaaPRY2Gx5xIJqW3vhajikKmfjWjFlUCC1uDatIa+fMxASZhpmFcJRp+JTLqSedhOaOybb2M1MLVcOetjQ2pSQ9rRYOsqiESn2Fd8oO/91UYlXMjy25uzjJhuVQY54sy9tjFM9yNV5WMuijBiXoUGBU+7QpGNTZjVD+RFYS56xk7h3c7F+eNRgP/D1HEzPGCFvk6jPLw+5ooVDDKb9uqiDGpidzs2hWKP8OAvoNlmIl69FU7emv5hPiMURUZFTg/nZmZfB7D+s/49Vni4Oinvdr+eVlMYopNFr6SjK7EAqO0wFw6qNhELv4Q+GWbssxwgtunCCJ51P9SRo3duxk/ScDE8ee7+nkOP1xETS+AUQ68yWzUfDtOJhbzE9nYJIGKhp+SUdCaxdrnpZxuSh2bL3y+3jWYXOv9AhilpdSCUh17xkb1wkiCJdL2Fm14iAWVTyqj4AMY5/VTmcXf3FjMPG+GP+Zb9aJwQ14AozjBOJDJJeoRH1IANmskbLilYr8vHHdLLNOjGBWLjKK3QU4v6ntHrbNDnDaiqSP4pxDNIQlWNw+Py+xlMEoSSRMlGGnSJjLiVuFmsYkscUBEk6VLZtT6xYxSWEYTmxfb9XotjuO901ZhJraH9Rwd/ptnVL4nkvQqrf+jNCAXvr/QBthyQlisJEbHMqpKO+qXdGcwyBU1QjAjVzz/1Jo5A0eNJFvP5CYBHIM1kSjC9AR/OkbF0FgV0CUxCrGmKpJQ9tQUF8iC12EqFL0qvpLRR8poIqOaEss8iTvguatWxN/ZLmUrHzAaRjTRn5HX8HVlVMai6CfhIlVyVEqOTJ3SJF1YS50Y1z+K0WUyOn+4Qrk9Xt6LhPTsgn7xYNSLLKDMV4M51TTR/PJpGBWbuGuidGQJkhg1zHFbJPOpmRTOM1BzCiFUo9keZoky2n56RkPk5hjlyTKKNT6gJ3LwD7wIC+meSkY5wz8ran7W5Z5mjHLMK0tt6A4w8EP7L3Sr5V7OWsr9WjIaIncdYzTJH8WCHeOvfztG1PDbdpmLAPwpsnnM4EZjv7Z3d127KC+d4U8c9aKPVOTMg/nv2DK5jz1qoqWqyYyqz8MoBJ9zjNJ7C4xSJ8fi3k0hdLwO985JCbOVjKabdcBate3T+/ujo4P7+7sLY8la/WRGlfcTS6hNHXeGxvhTjvm56ZKkUQ9vidCKGI1PJcwuTXvAKJcJ8eSFrGH1l2R0UzLK5xhtndNB8GaxfjYrezq6ynHQewuMzmbuNjeBUXJo5ozhwvUKd7Fcuzn4+z9+/PHHfxzf39dzyQ9iCaO8H7r5+iSQ8SfmSOxpELvlREY96WUBo+FU0eyjZYlMgoySuk72S8RJGtfmLBNdR4zRwyt8KLT2K3d1FPmu+TMMsKKZu01glKjYP4wY/ZTjMiGf9PGa2BUbi152bo5+3Psn4G5np3V/YTxCRrnok0Sa07nkt15YeDJf35Q06meTedOAhSmixQs1HjCqcU15uOPUfDbRuIpN6e8ylJ2dgpiER+ruGmJtHK6BP7+e1TzAyDdyV7JgZRNnl/FTLqQntrmRP23MTWU/GCVU/Al/t3F0dlU8be3sf/p8cP7p5q6cOKCWyGg4SQoOlD3584jKxfQH9TtJjPalgtBVF5f4G0qUMyZehAO+yKhwm1kopox29hZVcOIftOCyjEEO5oZI/N9vRAF/4e6ibIjF25xTVZoMsPIHOzI42KRnQVdSPI1+jydS0S6j6QXOZJko7vAmv6iYd//mp3L59ODHxtW/7nfPD1q7a2ZF5hiN5+ttrIjSxQz0/GZwSaPe79hCRVh6davkB0vwgFFW3l+F7fp1rNRmA0cqljbTYN6UrOZbd/X9qDbn3/+Jjs4fHgo+8aC7Io0bYydWuXP203F9Z3vFx1/kwGfYvrnOlU8Pj44+H9TKxZ+Eu5GOUbIoWNMoMqVWWL7XHs/b5SRGaTNj+Sw8p9oZJqNjxRlFGdi/OVyBQiFepZv/WBTyYVzcR28vVpIdxn4xw9m+HDDFvVjmEFOvq/BPGBLGNgz08mnr08ezf5dBBdxfPMjhy5oSNawpmfsltZlUqdxBzNXRVFTkMLCQ0cUqHcab7xyZSNWpwFS35BJAy7J1S5eVv+qCZVL2V6eb4yjcnYu4FP2ZVj7kbHkZ6Wb4D9ipnPQ/eGPvcPGApWg1gL3dVuu8fHp0fn50em5cnZ0Wl8iomsyowrsT29JDk4THkCO1IKP6oh4FrfO+N/JQTrGaIjo/hrBwZZ7RnbSMFlr1oqHJqIXlrk5nCdU13OQLR9s5QyyvZ9wo1pcnuGMg5dsAV7d8fHN9fvfPhrF/v3d1epNUp8Hi9aOLjDJeqtrW7NYtZ2wurHiQo16PM0quuN8bOo5HCtVSV0MyymMlsstvDFXi59quwUJXB9jJNepHh2vr9unc/3xqGLJuEcs7WG63dnS4rkydPhmdXcbOT2/2Pu2UjfLO3/91s1d8GMHgG6U3nsTv/MXZeaU7ddq2WLLrOZNLEyxu3AnWzMqbdttrw8nOh0jDihlU0x+Mp+8mo6rruA7Ape9O+N21Fxhlyv5Nfg0Kh62j6+3ibKkMo4wFM4r7x0dnh3TMRl4uaohOys+0QutTmUV3roiJmKva3VHrsFBY/dH3DXSu2fkeREsQ30LkVCsmxKHoKrztRVjcfQf3Jm2+mnY6k05nuNX3Oa20iB/Dfx+d/H34NGaMc1zl31yC13acUTypcb23CtfXNTDkxZzBZMugSErxRa5xsbO4+ububu/6uFb/9NOs/OfsuGHQiJerQrF5tlFuXIArUTte9fl/K4u0e3H/GmLQg9NjCOwTVo0szDg/KPyiC8buB74fiGJJtvj72SlzJ3Ntzgt9iHggYIqzKVe0CgZ5iOGcHf0fW6YJzztXLooVYcVwZRh5mY3jmQUqfLwwWLgoVKZ+yeM11nw8EwXJ+Ox2d8+LpI1/4UaYjz1HLJJSaNIo9lb416QGjCVUokzJsyy3RJHJ7cdCg1a9nGq7gRgSL+xZF9jP1fKI7ywKKalwO7oBuQKYRZWnlpDRZwNFYMbu3WHkAxxen6drlvvbgFAty59fuD7SDz18LDh71ush3WYUa2dhcLVROLpI2Rz/N4E0V8qDUlgToOrO4LlXV5O6xXRUaNAL9z/nXlAPh7eldeiPhzHnaRI864L1cPkgM3Zn09V/+7n87AP/6QbB5RtX+p7S/3Qd6ZKGP3rk+sspaOxf+cwbTjCxDFwx4nhBMtoPjfhSzKIoyxuVfv3NzzTteQ31U6PvWesCT5HP0nXPrfjUh/rlyMvXQN9bSyjyabddaozOsz1m1uHyjdN21mE0rPSagSKmyjJKV2O9rS+Vmn5ghssqs62l1iBdw0SRYqDlFhmfGTJkyJAhQ4bfPv4PSiFrAvvREwgAAAAASUVORK5CYII=;" vertex="1" parent="1">
                    <mxGeometry x="251.5" y="670" width="128.06" height="57" as="geometry"/>
                </mxCell>
                <mxCell id="80" value="" style="shape=image;imageAspect=0;aspect=fixed;verticalLabelPosition=bottom;verticalAlign=top;fontSize=18;fontColor=#000000;strokeColor=#000000;strokeWidth=2;fillColor=#E6E6E6;image=data:image/png,iVBORw0KGgoAAAANSUhEUgAAAVEAAACWCAMAAABQMkvIAAABJlBMVEX///8AYYvljgD///3//v8AYYr///v9//////j4//8AX4rcigAAXIbljwAAUXgAVHnXigD//+4AWIGx0tz///JYiqBgk6jd8vX357z26Ln/+d3nxYEAWX3768Tu1Zzz4Kzv/////ujboUPWjA7Zp1Hq0JBCepTC3+bcr1/YnDTWkyR3pLn//eL+9dQAVYAjZ4bQ6vCGrryVvcujx9IxcYwAW3uUvMpShp//98/px4TKhQB9qbxvmqwASnIRYH5CfJTd6u1ji5oATmqxytJzsMgkaoTj//+VxtYAQWGe1eWiu8K+1NmAmqFWhJaTqK3iuW9LlK0/iaq25u/gtWT24qvv59HkzJvIjyf12ZH/+sH//9LJmkfcokLjtmXir1P86aTnqjzm1bPi4hkBAAAYd0lEQVR4nO1dC2PayLWWPJIGCVkCAZYfGIRfGMfmjeMHgWzbpO3uTX3vTVq322zb/f9/4p5zZiQEFiBv7M36Rt96HYwlI306c15z5oyiZMiQIUOGDBkyvCAwTdG4whWNKYzBd86+9hW9dCCRQCIz4DswqmSEfhGYwkFAFTMITPyJcZBWxr/2Vb1goGxys7Q1HE06J7cl3ySRBUHN8Iuh8aDierZlWbbnjl4PfM6ZlgnpF4CZr9u67nlIqmrZzmjczfj8MgzeWPZkfHk7rTqepauW9+Z101QM0AfgA4ALwBRpq6IXGVYATNEH26o24aXpDyojMfzdSpcz4QIAh5LUTLemhDm07WHAuGHA6+7l0LFVVfUmfVOOfcYMYhWRkZoGvAIy2qURjghKYKdATp3pq1e3l/1BE82/IsjkmYJNAaYMHMvbMqWGBFfUbE4dMFJ2uw3mCsz/cNxvBhzDqUyPpgIL3tmWU0LPHsc2Ehf0wJ2yLd2C8Q/m3/OcybgUgIxmoz4NNN4EkXSb4IUqklKmdLem086kWq06TtsGpwocgEnfpxQAiDHLRHUFuKKZPQf8pyZqSYw/NSSVQ1jq+91uc/BqWG3buqrb7rtLnzNMqiCvmZVaAqYYGjdfOao96fLQoCNpACGLPOj2T9w2aFbd6VwGlAkg3ZCZqaWAOHSMUupzjShkmhKOaymIZrfXccBTtZ3OICC2M29/GbhCmjHYAoN/4stRj6xGrj28Boq5PwBPFTwA9wQCKhTgLIuaiChvF7z2rHYlCH8kM6UoIgqVBwUlwakz9pWMzjVgBg+mnuW8MgWRRCE3TZRRbUaeCXIK+rRd7QfimMw6LQOqRb9jq+CWyncM5e1305NBJLRyviToTTzwpZzXlJ/KbNMyCLPedVUI8EN7z8yxY7sfAj7PG+9uoYnyqn1TnPkVLvcFgHFK3F86qtOPBjNHN9W5jfjkXBh4Xup46ElVfDwpE9NkkLrkfkcHIUWZFOSZY0+fmPNH4SSUD76WbnkQE2SMLge57K88yy1heE8Gnin+yPsQ95IY2nhMAAxGHgZRfZNltmklSo7qvTb5zHe//F0z4TAQ5+60rYOBGgcyD5AhESwY2pbTjdmi4G2i4wmCGYxdiPXbW76Y7v8Vr/IlgfHLtur1eDQBAqGRluzLc2ZeOiCl3tQP504yPITG/KplgW2K8ZNIFcWmvORCBNUe+jwjdBkgcnrlgZevpLA36Dg1R0CpN0QpzQzUMnSrllcxY4EnRfYPwak8Cim1vOH7TEaXgGuKueWp1Wb40xpoSpcoPQk4F5nqZ7/EFwYkpOnKabw09ltIqe5VAvRaM2f/IUAdmpW26gghXcspBlcl11JV59Zcc+i3jK5ryXzJ+ggTJ50Gb5DSfpaATgYE7bznqu1bME5GmmHPKJ+iWm4zy5UmQEzIBVMInAZR5n4FGOVNgkpbV+0JZaJ+jat8cYCYvWrr7sBMmVdiiv/OViF4CmjcZwHpQzA+gPjSvTXTMgr+ga5aDkavYpI0wxw4DPdL18KBnxIav3VUC6vRWBbiLwEvVS17mnKBA9dYcIKO/pZJU6QZo4sQqWYIRtOVNzEkHuICsPfdZ7+2FwlM3vNxW22nHPWU8cPgVffGPNOjSeA40WzpIz/1+GUUF6ioSRWejfoHAClrVi0UuLRn4AKzimfhOVmFaRLI1le7j6kSZUpJaNIsYZIENN32lvmoQJ2BkKoqmPtcxugDcFSKTmlJqnkJNKxIUXWnmRGaAN5vW6MAX6WUUhzqzAT/QLWngZYtKFkEuEK2/RqTztE86HqOmMH9iaWq7kARS0oyCxWBKcHQat8KMkMhXa8BMHZ1LMt+Fwhzn0lqBMb8Krr3RKZGU3RpyMGiiKFtqU4vo/IBuo6ofsJqHEqZUiC0bhiDaDYdS9WrvkJqIhv2MzQd1SWbjWkPDTQkTzGEGa7igVgUEyaawjOTH0cJGZV5OazY++H3PE0imaPbpaso35mEzoMYpQwILSNpVodBSkeK30IsGs77Pe9Fvig0HV04+DCQQTlObKeZtrTJH6EH1csqoebRdVRM4Mu654lt2RXTSFfZxHttDO/9+AKTDFig1+6JrBwDY2NZKYvL0PMCD0qNrS3PQABWQCrxlYGeFITr9knKmhGDgxJG45TVQ8wAEfqWbXUCckRxFFu6ikKaxnxzxjEHBcYpK9ebAYjsexaVPtEgBqcdNGknSDfhwcE4YVFpxTcX3v+mAabJu6XcMdhuy6r+wVVBsaap2qHZfhc0rzepDHyiMZt4ApgntvUuQCpKLvqX76e2NUo10YnVeuatI1txbTVNGRt80yKKDICYOZdoXPquirNHWK93ElCkue50jTHzcuR4tqpjJ45XzVknnm8WOBf6zrY7PmN8jIF6XzFvPRUoTtFNDxeYghNbGr9zPexx5LnTQQCEat80pYxzbFgEmpRXbAiBwM6jn1/t8lReqeggE3T7FRBVbBsxLJnf9rDHzD36QE7fRH9dreLEfcmhcS/X3aT7Q/x9aTwEUm1n2jTlcvxvklnKOKFQupU/jnR0nDB26jmqe8vF4E1HC8b2PGhuVYFTd+zjZDX/dhMoHJcsqHZbV632mAg0x45OoZCWvmqEKsnNbuWNbXmjPhWkMuMZr/q3CixchhvvdjwdvHtvInLy6BTZo276JTa0npw0L2++dm3LGTbTzrD8vwMX3Yf820nVHX1Ae0Q8mD0Xu+2kX7VEnSWoMsUcvGtbdvU2+DYHvTDn5AQ1m11T1i1ryIvrbJmPrWwC3Qui6sPjEGKaIQrnsZPJ8M2tmbLqVlY7h2vNeHdc9Wz3FptEfuNdomMJEqYEr/404FSzy1MZKCYKTsjjMrtbrt2e+lkfwxhAE5R+NyAT/oixT32N8AVvduzqUM4+Z0CgyAXffZ8+pySPMalNZLfZ/XNVrh5/xot8WaCWet//xZRbkKwFRF9+czD+MOxMRlWEblkw8L9FpzQBcscRcCl/+K+Arw9/0DvwS1sd18F+uwTbbjtu58PbrBJ6DsCG/5e361fWMv7D0HWowS72hHaqk+G00ht0AyWrLZ8D7pGhmOZ6U0/FehDGqtRce9D0/cAUneF4Zu4fgvbIWXdM0LF1VfX+0PRNUWWiCSbJ588QQqPYPIWIoqvlgpDa0/ehZyDbPz+bgL7k55SisEwsOlFVyztpUu5FnvaSb/sReHpTQZ21zVtss2WPev48j8kfx0XrXUyrdkuDXq8HylcWsK56hBqFdUF3cNnr9UukYp6qCQ0FJyANuVy5uAY5Jm6AC+2GgLOSkTNkI2w262KQi/5SObdqwTLvu+g5tas9X5lJ9jIx1USWerA1rDqu53nt6qTS5GGjzuW3zbjf61QdOMF1qp1pr8ufpAEVCYVR3t2uXd+dnh6txs+GCHxIHxq5Bp318TQJd3fH9e1dfAazMlL21+gDTv9qrGgXwXjzxEFX1Jv0RKy0ghtqu8tLHcfW8RQdvus2djtcbcjASJYm9CGgYtDrbVexQ+ITgLPcee1jq5DP5zfWoFBDtYZjg3Ojsb13dIZnydPy9DV7nc8XDs+OrveLxqwIYrsQ/amdFaURKL5Bv+rhZhrtyaWpxOU86RYUXnpj0+YbKjKKXw52l1jxHBgzB29wvx4dT0JW4bMqT9LcJ3exB8SspnJzYxO+NvK1HGksTYOH8HnFSZvRq3zhoHZuSP+HzTO64nZRvvwx7qYD9zlsytXNy4ohNSruE9DDb854ZaILhoFLO6Do+BQsiihwhduXgrFyvZVfYGGljNIQLG8fFVIcLzk92s9JaVlgdGm5KIkk592tkQd3a1d7gbJKSWi0Ul+QqWING/6HFdcrXAQWTO3oDPk0sMroy/iEK8/VD1Myg+TUDNojLFc/S3sK8p5v7eTADWKpR70iukIwsemDh03K/dUhaMnRQxm1Q368yvJ6VKyAwSUqSL1lR5TaXzrsGTf2z2bCiYqvtRI/o4xqeFKMMTztIQr5mOifXeBWYwujPt01BqWtUdtuT5phb65EUS2JEQyEdv7bEy90LMJYrllwMyQc70Bo53/sp2IUlOhePmQm37quX11c7K5CmXzt4sfoJBTAvfo+nLeAq+3a6Uz683tlIuNxjMr1e6Z/OXTaoyY3lpftRIxao/8dCfWoW97UTBoI8Cc0A7MH4gTV/eOWfAhfzCg87Mbn6K5bVzmahVwFuiB2FRvzh8fnOTDm1BZbHkNNx7liFHcO8kQ7EN/aJZP2C2SUmpwFg4kzagKhy3Z8iDH6HpdFCvuEZeuJ980YLqaQO3MN32/ZKNJfIqOzlbAXSA7Y8Y3N/HFO6P7l6k0T57J6IZLQwnFZSVL/5Nobgno6btvA6edHMko1ADSBz4PeCNtzafyha4qfTowiKfrIx10k6CU1lU+6fUYLflQyYZYzMLcejPr5z1hfAyuPR0ZvooH5yYjIWAqKullt5jaBgqT3k08q34VHFuq/VI9y8oHgYXcrf+qZVLOT8GFYsUrGHpdD9tFMkcwld5/CBikjfAAopPbQNOWojzFqPHIh0OwJXIW6bjNfN8T6w7WBmGCUXNSNzw3Mz2nz1Xdy2xZNyR3nN7+MUR673mDwpwEa06TjZpYJGMWidfKfVPtdQAHJ3D3hTmfIIRxi0Vq/BBnVuBli+WJMrmlmEMKUG/4ho5sRo+nAahEvGweNpdYUfgGMfrGMxv6g0v3uLUseDiGjOi3Zpe4n6LlT+eqi28s0cO6lEtXRxUpgVOkNTwDTk5PheBmh2I+pN+lIfDDpubFIRjeA0WS7+EBvxUf9QWPV6HhKRmlppLlsWd5MRrE9EtavWyIinbzH8TMno1wxX3vCBbWwfxdPYJSPPVug/YEvb6XMX7UtORd2YoryjasbYTowwjRSJnXnZXTVkcbTMYoxqMaXdimeY1QRIRQ6ULhobfEc7OAj4ySsbVeSZBSpolDfsivLpsbQMbqNNPCJKdiLWaaPRY2Gx5xIJqW3vhajikKmfjWjFlUCC1uDatIa+fMxASZhpmFcJRp+JTLqSedhOaOybb2M1MLVcOetjQ2pSQ9rRYOsqiESn2Fd8oO/91UYlXMjy25uzjJhuVQY54sy9tjFM9yNV5WMuijBiXoUGBU+7QpGNTZjVD+RFYS56xk7h3c7F+eNRgP/D1HEzPGCFvk6jPLw+5ooVDDKb9uqiDGpidzs2hWKP8OAvoNlmIl69FU7emv5hPiMURUZFTg/nZmZfB7D+s/49Vni4Oinvdr+eVlMYopNFr6SjK7EAqO0wFw6qNhELv4Q+GWbssxwgtunCCJ51P9SRo3duxk/ScDE8ee7+nkOP1xETS+AUQ68yWzUfDtOJhbzE9nYJIGKhp+SUdCaxdrnpZxuSh2bL3y+3jWYXOv9AhilpdSCUh17xkb1wkiCJdL2Fm14iAWVTyqj4AMY5/VTmcXf3FjMPG+GP+Zb9aJwQ14AozjBOJDJJeoRH1IANmskbLilYr8vHHdLLNOjGBWLjKK3QU4v6ntHrbNDnDaiqSP4pxDNIQlWNw+Py+xlMEoSSRMlGGnSJjLiVuFmsYkscUBEk6VLZtT6xYxSWEYTmxfb9XotjuO901ZhJraH9Rwd/ptnVL4nkvQqrf+jNCAXvr/QBthyQlisJEbHMqpKO+qXdGcwyBU1QjAjVzz/1Jo5A0eNJFvP5CYBHIM1kSjC9AR/OkbF0FgV0CUxCrGmKpJQ9tQUF8iC12EqFL0qvpLRR8poIqOaEss8iTvguatWxN/ZLmUrHzAaRjTRn5HX8HVlVMai6CfhIlVyVEqOTJ3SJF1YS50Y1z+K0WUyOn+4Qrk9Xt6LhPTsgn7xYNSLLKDMV4M51TTR/PJpGBWbuGuidGQJkhg1zHFbJPOpmRTOM1BzCiFUo9keZoky2n56RkPk5hjlyTKKNT6gJ3LwD7wIC+meSkY5wz8ran7W5Z5mjHLMK0tt6A4w8EP7L3Sr5V7OWsr9WjIaIncdYzTJH8WCHeOvfztG1PDbdpmLAPwpsnnM4EZjv7Z3d127KC+d4U8c9aKPVOTMg/nv2DK5jz1qoqWqyYyqz8MoBJ9zjNJ7C4xSJ8fi3k0hdLwO985JCbOVjKabdcBate3T+/ujo4P7+7sLY8la/WRGlfcTS6hNHXeGxvhTjvm56ZKkUQ9vidCKGI1PJcwuTXvAKJcJ8eSFrGH1l2R0UzLK5xhtndNB8GaxfjYrezq6ynHQewuMzmbuNjeBUXJo5ozhwvUKd7Fcuzn4+z9+/PHHfxzf39dzyQ9iCaO8H7r5+iSQ8SfmSOxpELvlREY96WUBo+FU0eyjZYlMgoySuk72S8RJGtfmLBNdR4zRwyt8KLT2K3d1FPmu+TMMsKKZu01glKjYP4wY/ZTjMiGf9PGa2BUbi152bo5+3Psn4G5np3V/YTxCRrnok0Sa07nkt15YeDJf35Q06meTedOAhSmixQs1HjCqcU15uOPUfDbRuIpN6e8ylJ2dgpiER+ruGmJtHK6BP7+e1TzAyDdyV7JgZRNnl/FTLqQntrmRP23MTWU/GCVU/Al/t3F0dlU8be3sf/p8cP7p5q6cOKCWyGg4SQoOlD3584jKxfQH9TtJjPalgtBVF5f4G0qUMyZehAO+yKhwm1kopox29hZVcOIftOCyjEEO5oZI/N9vRAF/4e6ibIjF25xTVZoMsPIHOzI42KRnQVdSPI1+jydS0S6j6QXOZJko7vAmv6iYd//mp3L59ODHxtW/7nfPD1q7a2ZF5hiN5+ttrIjSxQz0/GZwSaPe79hCRVh6davkB0vwgFFW3l+F7fp1rNRmA0cqljbTYN6UrOZbd/X9qDbn3/+Jjs4fHgo+8aC7Io0bYydWuXP203F9Z3vFx1/kwGfYvrnOlU8Pj44+H9TKxZ+Eu5GOUbIoWNMoMqVWWL7XHs/b5SRGaTNj+Sw8p9oZJqNjxRlFGdi/OVyBQiFepZv/WBTyYVzcR28vVpIdxn4xw9m+HDDFvVjmEFOvq/BPGBLGNgz08mnr08ezf5dBBdxfPMjhy5oSNawpmfsltZlUqdxBzNXRVFTkMLCQ0cUqHcab7xyZSNWpwFS35BJAy7J1S5eVv+qCZVL2V6eb4yjcnYu4FP2ZVj7kbHkZ6Wb4D9ipnPQ/eGPvcPGApWg1gL3dVuu8fHp0fn50em5cnZ0Wl8iomsyowrsT29JDk4THkCO1IKP6oh4FrfO+N/JQTrGaIjo/hrBwZZ7RnbSMFlr1oqHJqIXlrk5nCdU13OQLR9s5QyyvZ9wo1pcnuGMg5dsAV7d8fHN9fvfPhrF/v3d1epNUp8Hi9aOLjDJeqtrW7NYtZ2wurHiQo16PM0quuN8bOo5HCtVSV0MyymMlsstvDFXi59quwUJXB9jJNepHh2vr9unc/3xqGLJuEcs7WG63dnS4rkydPhmdXcbOT2/2Pu2UjfLO3/91s1d8GMHgG6U3nsTv/MXZeaU7ddq2WLLrOZNLEyxu3AnWzMqbdttrw8nOh0jDihlU0x+Mp+8mo6rruA7Ape9O+N21Fxhlyv5Nfg0Kh62j6+3ibKkMo4wFM4r7x0dnh3TMRl4uaohOys+0QutTmUV3roiJmKva3VHrsFBY/dH3DXSu2fkeREsQ30LkVCsmxKHoKrztRVjcfQf3Jm2+mnY6k05nuNX3Oa20iB/Dfx+d/H34NGaMc1zl31yC13acUTypcb23CtfXNTDkxZzBZMugSErxRa5xsbO4+ububu/6uFb/9NOs/OfsuGHQiJerQrF5tlFuXIArUTte9fl/K4u0e3H/GmLQg9NjCOwTVo0szDg/KPyiC8buB74fiGJJtvj72SlzJ3Ntzgt9iHggYIqzKVe0CgZ5iOGcHf0fW6YJzztXLooVYcVwZRh5mY3jmQUqfLwwWLgoVKZ+yeM11nw8EwXJ+Ox2d8+LpI1/4UaYjz1HLJJSaNIo9lb416QGjCVUokzJsyy3RJHJ7cdCg1a9nGq7gRgSL+xZF9jP1fKI7ywKKalwO7oBuQKYRZWnlpDRZwNFYMbu3WHkAxxen6drlvvbgFAty59fuD7SDz18LDh71ush3WYUa2dhcLVROLpI2Rz/N4E0V8qDUlgToOrO4LlXV5O6xXRUaNAL9z/nXlAPh7eldeiPhzHnaRI864L1cPkgM3Zn09V/+7n87AP/6QbB5RtX+p7S/3Qd6ZKGP3rk+sspaOxf+cwbTjCxDFwx4nhBMtoPjfhSzKIoyxuVfv3NzzTteQ31U6PvWesCT5HP0nXPrfjUh/rlyMvXQN9bSyjyabddaozOsz1m1uHyjdN21mE0rPSagSKmyjJKV2O9rS+Vmn5ghssqs62l1iBdw0SRYqDlFhmfGTJkyJAhQ4bfPv4PSiFrAvvREwgAAAAASUVORK5CYII=;" vertex="1" parent="1">
                    <mxGeometry x="627.5" y="668" width="128.06" height="57" as="geometry"/>
                </mxCell>
            </root>
        </mxGraphModel>
    </diagram>
</mxfile>